<?xml version="1.0" encoding="UTF-8" standalone="no"?>
<!-- Created with Inkscape (http://www.inkscape.org/) -->

<svg
   xmlns:dc="http://purl.org/dc/elements/1.1/"
   xmlns:cc="http://creativecommons.org/ns#"
   xmlns:rdf="http://www.w3.org/1999/02/22-rdf-syntax-ns#"
   xmlns:svg="http://www.w3.org/2000/svg"
   xmlns="http://www.w3.org/2000/svg"
   xmlns:sodipodi="http://sodipodi.sourceforge.net/DTD/sodipodi-0.dtd"
   xmlns:inkscape="http://www.inkscape.org/namespaces/inkscape"
   width="210mm"
   height="297mm"
   viewBox="0 0 210 297"
   version="1.1"
   id="svg8"
   inkscape:version="0.92.4 (5da689c313, 2019-01-14)"
   sodipodi:docname="start.svg">
  <defs
     id="defs2" />
  <sodipodi:namedview
     id="base"
     pagecolor="#ffffff"
     bordercolor="#666666"
     borderopacity="1.0"
     inkscape:pageopacity="0.0"
     inkscape:pageshadow="2"
     inkscape:zoom="0.49497475"
     inkscape:cx="61.187534"
     inkscape:cy="715.52733"
     inkscape:document-units="mm"
     inkscape:current-layer="layer1"
     showgrid="false"
     inkscape:window-width="1920"
     inkscape:window-height="1017"
     inkscape:window-x="-8"
     inkscape:window-y="-8"
     inkscape:window-maximized="1" />
  <metadata
     id="metadata5">
    <rdf:RDF>
      <cc:Work
         rdf:about="">
        <dc:format>image/svg+xml</dc:format>
        <dc:type
           rdf:resource="http://purl.org/dc/dcmitype/StillImage" />
        <dc:title />
      </cc:Work>
    </rdf:RDF>
  </metadata>
  <g
     inkscape:label="Layer 1"
     inkscape:groupmode="layer"
     id="layer1">
    <g
       id="g828"
       transform="matrix(4.989097,0,0,4.4431923,-68.146332,-283.43143)">
      <path
         style="fill:#f4e0d6;stroke-width:0.26458332"
         d="M 13.644942,97.239582 V 63.108334 H 35.340775 57.036608 V 97.239582 131.37083 H 35.340775 13.644942 Z"
         id="path844"
         inkscape:connector-curvature="0" />
      <path
         style="fill:#f4d8a5;stroke-width:0.26458332"
         d="m 16.776571,131.12117 c -1.066335,-0.20768 -2.337879,-0.93863 -2.337879,-1.34394 0,-0.14216 -0.178594,-0.25848 -0.396875,-0.25848 -0.246944,0 -0.396875,-0.24989 -0.396875,-0.66146 0,-0.79727 0.159738,-0.81502 1.190625,-0.13229 0.436562,0.28912 1.229246,0.52646 1.76152,0.52742 1.047874,0.002 3.740923,1.2482 3.508776,1.62382 -0.07818,0.12651 0.132766,0.22061 0.468776,0.20912 0.33601,-0.0115 0.45713,-0.0826 0.269156,-0.15802 -0.256404,-0.10288 -0.267464,-0.22667 -0.04428,-0.49559 0.235307,-0.28353 0.106098,-0.43843 -0.618116,-0.74103 -0.503585,-0.21041 -0.996702,-0.51377 -1.095815,-0.67414 -0.09911,-0.16037 -0.411304,-0.29158 -0.693758,-0.29158 -0.282454,0 -0.513552,-0.11906 -0.513552,-0.26459 0,-0.14552 0.23538,-0.26458 0.523067,-0.26458 0.609698,0 1.525884,-1.23639 1.16991,-1.57879 -0.130773,-0.12578 -0.654487,-0.2685 -1.16381,-0.31714 -0.870493,-0.0831 -0.926616,-0.0408 -0.93561,0.70531 -0.008,0.66458 -0.115651,0.79375 -0.661458,0.79375 -0.479253,0 -0.674786,-0.16152 -0.738347,-0.60988 -0.04755,-0.33543 0.04687,-0.77053 0.209831,-0.96688 0.263431,-0.31741 0.130657,-1.73054 -0.162598,-1.73054 -0.06278,0 -0.580913,0.23813 -1.151401,0.52917 -0.570489,0.29104 -1.101527,0.52917 -1.180085,0.52917 -0.07856,0 -0.142832,-13.7905 -0.142832,-30.645548 V 64.258908 l 0.612365,-0.575287 0.612365,-0.575287 h 20.508181 20.50818 l 0.575289,0.612365 0.575286,0.612365 v 16.695794 c 0,13.109072 -0.07105,16.724463 -0.330729,16.829246 -0.264583,0.106762 -0.264583,0.137629 0,0.15434 0.259374,0.01638 0.330729,2.589666 0.330729,11.927136 0,6.54844 -0.09995,11.90625 -0.222112,11.90625 -0.122164,0 -0.361403,0.30571 -0.531644,0.67934 -0.247726,0.54371 -0.232648,0.78911 0.07552,1.22908 0.233812,0.33381 0.325715,0.84639 0.233987,1.30503 -0.09452,0.47261 -0.03966,0.7553 0.146595,0.7553 0.750308,0 0.178935,0.76296 -0.906624,1.21063 -0.995016,0.41033 -1.180129,0.59285 -1.065292,1.05039 0.19264,0.76755 -1.045998,2.18462 -2.364089,2.70466 -1.416667,0.55892 -5.943312,0.76096 -6.248953,0.27891 -0.167574,-0.2643 -0.222774,-0.26896 -0.225835,-0.0191 -0.0021,0.1819 -0.249203,0.33073 -0.548833,0.33073 -0.29963,0 -0.471197,-0.11906 -0.381259,-0.26458 0.08994,-0.14552 -0.08866,-0.26459 -0.396875,-0.26459 -0.318064,0 -0.487371,0.11816 -0.391523,0.27325 0.110178,0.17827 -0.38717,0.25656 -1.430893,0.22524 -1.010796,-0.0303 -1.538288,-0.14748 -1.432772,-0.31821 0.110226,-0.17835 -0.0052,-0.18833 -0.339431,-0.0294 -0.688867,0.32761 -9.008703,0.42378 -10.163225,0.11749 -0.509592,-0.13518 -2.355281,-0.32795 -4.101531,-0.42835 -2.420764,-0.1392 -3.317167,-0.29293 -3.773458,-0.64717 -0.335673,-0.26059 -0.834044,-0.40299 -1.134974,-0.3243 -0.65126,0.17031 -0.490832,0.36364 0.601909,0.72534 0.454957,0.15059 0.875824,0.42263 0.935261,0.60453 0.08237,0.2521 -0.5734,0.3235 -2.758252,0.3003 -1.576476,-0.0167 -3.302555,-0.11538 -3.835732,-0.21923 z m 28.486079,-1.83433 c 0,-0.4643 0.131654,-0.92948 0.292566,-1.03374 0.160909,-0.10426 0.372072,-0.62223 0.469249,-1.15105 0.137739,-0.74954 0.08306,-0.99742 -0.248058,-1.12448 -0.70576,-0.27082 -0.910632,-0.18844 -0.910632,0.36618 0,0.29398 -0.17639,0.52916 -0.396875,0.52916 -0.515596,0 -0.504854,0.52185 0.02635,1.28025 0.386453,0.55174 0.386768,0.64452 0.0036,1.0679 -0.326141,0.36038 -0.348954,0.53432 -0.102417,0.78086 0.502229,0.50223 0.866206,0.20175 0.866206,-0.71508 z m 7.655782,-1.59245 c 0.08051,-0.13027 -0.03152,-0.30513 -0.248968,-0.38857 -0.240151,-0.0922 -0.395356,7.9e-4 -0.395356,0.23686 0,0.42793 0.413443,0.52528 0.644324,0.15171 z m -20.434107,-2.19626 c -0.447509,-0.44751 -1.201173,0.30616 -0.952968,0.95297 0.166152,0.43299 0.217491,0.42717 0.727037,-0.0824 0.430989,-0.43099 0.479315,-0.6172 0.225931,-0.87059 z m 10.661658,0.0519 c -0.08994,-0.14552 -0.275558,-0.26459 -0.41249,-0.26459 -0.136933,0 -0.248968,0.11907 -0.248968,0.26459 0,0.14552 0.185621,0.26458 0.412491,0.26458 0.226869,0 0.338904,-0.11906 0.248967,-0.26458 z m 11.244792,-1.43316 c 0,-0.35168 0.140483,-0.68624 0.312184,-0.74347 0.485003,-0.16167 0.03285,-0.99837 -0.539517,-0.99837 -0.381066,0 -0.534773,0.22485 -0.613256,0.89712 -0.130279,1.11593 -0.01473,1.48413 0.465761,1.48413 0.21998,0 0.374828,-0.26415 0.374828,-0.63941 z m -19.46442,-3.09315 c -0.35069,-0.56742 -0.642726,0.16225 -0.626501,1.56536 l 0.01741,1.50574 0.380201,-1.41313 c 0.20911,-0.77723 0.31211,-1.52331 0.228888,-1.65797 z m 4.39102,1.36598 c -0.160078,-0.29911 -0.412656,-0.54384 -0.561284,-0.54384 -0.148628,0 -0.05662,0.36162 0.204464,0.8036 0.513675,0.86958 0.835745,0.63512 0.35682,-0.25976 z m 3.612579,-3.66185 c 0.142925,-1.09735 -0.591715,-2.17366 -1.483641,-2.17366 -0.268634,0 -0.683461,-0.29765 -0.921832,-0.66145 -0.238374,-0.36381 -0.614649,-0.66146 -0.83617,-0.66146 -0.308907,0 -0.367666,-0.20038 -0.25215,-0.8599 0.184176,-1.0515 0.583983,-2.98873 0.817842,-3.96276 0.134641,-0.56079 -0.03316,-1.03254 -0.752866,-2.11667 -0.761527,-1.14711 -1.131234,-1.45244 -2.080221,-1.718 -2.565484,-0.71789 -2.922387,-0.68906 -3.99837,0.32293 -0.545703,0.51325 -0.992188,1.09068 -0.992188,1.28317 0,0.45312 -1.888793,3.29777 -2.295928,3.45783 -0.344747,0.13554 -0.191505,-1.47881 0.216067,-2.27619 0.569507,-1.11418 -0.233843,-1.85996 -0.821246,-0.76239 -0.551035,1.02962 -0.173764,3.32469 0.546522,3.32469 0.593965,0 0.641032,1.70522 0.05833,2.11342 -0.365925,0.25634 -0.4718,0.6475 -0.440006,1.62562 0.0457,1.40596 0.446555,3.45216 0.732253,3.73786 0.09893,0.0989 0.501011,-0.22612 0.893504,-0.72234 0.392494,-0.49622 0.860496,-1.0879 1.040005,-1.31485 0.287913,-0.364 0.345559,-0.34462 0.489094,0.16438 0.211794,0.75106 0.735409,0.9336 1.634219,0.5697 0.398918,-0.16151 0.999669,-0.27803 1.335001,-0.25894 0.454112,0.0259 0.680145,-0.16737 0.885778,-0.75725 0.260219,-0.74647 1.282652,-1.16969 1.282652,-0.53095 0,0.14357 0.386953,0.44441 0.859896,0.66854 1.752698,0.8306 2.18291,1.17839 2.196865,1.77593 0.0077,0.33099 0.173291,0.924 0.367916,1.3178 l 0.353864,0.71601 0.518385,-0.65902 c 0.28511,-0.36246 0.576001,-1.10138 0.64642,-1.64205 z m -9.701794,-2.31539 c 0.0072,-0.4555 0.490924,-1.03898 0.693417,-0.83649 0.108391,0.10839 -0.0042,0.39835 -0.250197,0.64435 -0.245999,0.246 -0.445448,0.33246 -0.44322,0.19214 z m -3.89693,2.98601 c 0.09411,-0.59534 -0.0035,-1.00518 -0.317225,-1.3321 -0.433682,-0.4519 -0.468112,-0.44425 -0.801159,0.17805 -0.453534,0.84744 -0.17067,2.01394 0.488357,2.01394 0.353169,0 0.532866,-0.24526 0.630027,-0.85989 z m -9.091834,-4.77181 c 0.03274,-0.33794 -1.054875,0.3402 -1.215042,0.75759 -0.08082,0.21061 0.01039,0.57251 0.202694,0.80422 0.308821,0.37211 0.387148,0.31766 0.670929,-0.46639 0.17671,-0.48822 0.330348,-0.98116 0.341419,-1.09542 z m 0.02013,-1.12633 c 0,-0.20724 0.590576,-0.67607 1.312391,-1.04184 1.148452,-0.58197 1.404596,-0.62424 2.050521,-0.33842 0.405971,0.17965 0.871039,0.49803 1.033483,0.70752 0.255211,0.32912 0.426855,0.31849 1.262912,-0.0783 0.990149,-0.46985 1.064471,-0.95764 0.145912,-0.95764 -0.621601,0 -0.695882,-0.84222 -0.116677,-1.32292 0.545345,-0.4526 0.501985,-0.73829 -0.264584,-1.74331 -0.363802,-0.47697 -0.661458,-1.13368 -0.661458,-1.45935 0,-0.32567 -0.18836,-0.80027 -0.418579,-1.05466 -0.348154,-0.3847 -0.559602,-0.41514 -1.256771,-0.18088 -1.025329,0.34452 -1.501371,0.69722 -1.425045,1.0558 0.03173,0.14906 -0.299501,0.47485 -0.736063,0.72397 -0.734806,0.41932 -0.789835,0.55434 -0.741032,1.81815 0.04378,1.13368 -0.03859,1.41406 -0.485681,1.65334 -0.29612,0.15848 -0.606545,0.22 -0.689833,0.13671 -0.24447,-0.24447 -0.861579,0.39735 -0.861579,0.89607 0,0.25198 0.298182,0.77988 0.662627,1.17312 0.663062,0.71546 1.189456,0.72103 1.189456,0.0126 z m 23.836955,-4.75134 c -0.0019,-0.14552 -0.246335,-0.30263 -0.543142,-0.34913 -0.532124,-0.0834 -0.715891,0.21698 -0.35411,0.57876 0.257268,0.25727 0.901507,0.0924 0.897252,-0.22963 z m 2.829806,-2.02055 c -0.06605,-0.19816 -0.185986,-0.0782 -0.279545,0.27955 -0.115086,0.44009 -0.08065,0.54339 0.115686,0.34705 0.15375,-0.15375 0.227486,-0.43572 0.163859,-0.6266 z m -15.272875,-0.93406 c 0.200107,-0.52633 0.181632,-0.76063 -0.07269,-0.92199 -0.54428,-0.34532 -0.667568,-0.26943 -0.814971,0.50165 -0.244361,1.27829 0.438528,1.60166 0.887666,0.42034 z m 1.041531,-1.70683 c 0,-0.14552 -0.119063,-0.191 -0.264584,-0.10106 -0.14552,0.0899 -0.264583,0.28258 -0.264583,0.4281 0,0.14552 0.119063,0.191 0.264583,0.10106 0.145521,-0.0899 0.264584,-0.28258 0.264584,-0.4281 z m -2.38125,-1.67295 c 0,-0.0642 -0.119063,-0.19026 -0.264584,-0.2802 -0.14552,-0.0899 -0.264583,-0.0374 -0.264583,0.11668 0,0.15411 0.119063,0.2802 0.264583,0.2802 0.145521,0 0.264584,-0.0525 0.264584,-0.11668 z m 4.346679,-16.960862 c 0.779636,-0.510837 1.140774,-2.448525 0.668739,-3.588119 -0.254897,-0.615376 -0.479536,-0.764794 -1.144913,-0.761538 -1.307802,0.0064 -1.561325,0.312052 -1.564358,1.886011 -0.0032,1.659346 0.420773,2.872438 1.003904,2.872438 0.227003,0 0.693486,-0.183956 1.036628,-0.408792 z"
         id="path842"
         inkscape:connector-curvature="0" />
      <path
         style="fill:#e9b198;stroke-width:0.26458332"
         d="m 32.245831,131.0401 c -0.137127,-0.1819 -0.408727,-0.83625 -0.603554,-1.45412 -0.313193,-0.99324 -0.303388,-1.17957 0.08463,-1.60833 0.241376,-0.26672 0.438865,-0.57564 0.438865,-0.6865 0,-0.11085 0.52218,-0.81585 1.160401,-1.56666 0.86214,-1.01424 1.247506,-1.75843 1.499289,-2.89531 0.459351,-2.07412 0.04009,-2.53575 -0.920705,-1.01375 -0.378009,0.5988 -0.79028,1.08873 -0.916157,1.08873 -0.417791,0 -0.778482,-0.65213 -0.867356,-1.56818 -0.04827,-0.49753 -0.206826,-0.94023 -0.352347,-0.98378 -0.145521,-0.0435 -0.800365,0.71168 -1.455208,1.67828 -1.37472,2.0292 -1.852084,2.33556 -1.852084,1.18862 0,-0.45591 -0.167105,-0.85161 -0.396875,-0.93978 -0.218281,-0.0838 -0.396875,-0.34951 -0.396875,-0.59055 0,-0.34273 0.167661,-0.40472 0.769196,-0.28441 0.602994,0.1206 0.92115,0.002 1.472449,-0.54941 0.784309,-0.78431 2.050639,-2.58925 2.333048,-3.32537 0.199193,-0.51921 0.716974,-0.37296 0.716974,0.20252 0,0.52776 0.705221,0.69701 1.523652,0.36565 0.398918,-0.16151 0.999669,-0.27803 1.335001,-0.25894 0.454112,0.0259 0.680145,-0.16737 0.885778,-0.75725 0.260219,-0.74647 1.282652,-1.16969 1.282652,-0.53095 0,0.14357 0.386953,0.44552 0.859896,0.671 2.079792,0.99154 2.366968,1.22232 2.220071,1.78405 -0.08,0.30594 0.145063,1.15673 0.510164,1.92849 0.385541,0.81497 0.624142,1.7432 0.582121,2.26462 -0.07068,0.87706 -0.06116,0.88487 1.288121,1.05573 0.747633,0.0947 1.720287,0.38534 2.16145,0.64595 0.741511,0.43802 0.851011,0.44178 1.449163,0.0499 0.419372,-0.27478 0.759076,-0.86888 0.96544,-1.68843 0.283361,-1.12532 0.267174,-1.30193 -0.147084,-1.60485 -0.719828,-0.52635 -1.189821,-0.41311 -2.156182,0.51953 -0.863685,0.83354 -0.902589,0.84416 -1.269368,0.34631 -0.489926,-0.66501 -0.478345,-1.21032 0.04147,-1.95246 0.383407,-0.5474 0.383407,-0.65503 0,-1.24019 -0.230918,-0.35242 -0.419849,-0.86542 -0.419849,-1.14 0,-0.51307 1.116655,-1.80526 2.010328,-2.32635 0.731443,-0.4265 0.69365,-1.82325 -0.04933,-1.82325 -0.303901,0 -0.739786,-0.15461 -0.968632,-0.34357 -0.492982,-0.40708 -0.617199,-0.25034 -0.870133,1.09791 l -0.190394,1.01488 -0.548682,-0.54868 -0.548685,-0.54869 0.582766,-0.78823 c 0.320521,-0.43353 0.582766,-0.95089 0.582766,-1.1497 0,-0.41647 0.973442,-1.35655 1.653011,-1.59636 0.258664,-0.0913 0.870661,0.0777 1.389062,0.38358 1.068726,0.63057 1.155795,0.39335 0.39964,-1.08884 -1.052375,-2.06282 0.07678,-7.33705 1.518163,-7.09124 0.330915,0.0564 0.489252,-0.19282 0.624266,-0.98272 0.09949,-0.58209 0.130257,-1.11161 0.06836,-1.17672 -0.127508,-0.13413 -1.594352,0.66767 -2.248389,1.22901 -0.403463,0.34628 -0.64483,1.07495 -1.197481,3.61512 -0.209769,0.96416 -0.283125,1.02596 -1.305179,1.09963 -0.595606,0.0429 -1.227015,-0.011 -1.40313,-0.11984 -0.176117,-0.10885 -0.722156,-0.99679 -1.213421,-1.97322 l -0.893213,-1.77531 0.671455,-0.25528 c 0.555876,-0.21135 0.615383,-0.32285 0.345715,-0.64778 -0.436004,-0.52535 -1.319279,-0.50321 -1.319279,0.0331 0,0.33188 -0.160171,0.38558 -0.727604,0.24397 -0.400182,-0.0999 -0.915573,-0.35091 -1.145313,-0.55785 -0.966962,-0.87102 -1.305048,-0.27195 -1.386735,2.45719 l -0.04764,1.59163 -1.634011,-0.13052 c -1.387979,-0.11087 -1.741936,-0.0456 -2.350786,0.43329 -1.589232,1.25009 -2.510018,0.33392 -1.245655,-1.23941 0.434288,-0.54041 0.874092,-1.24874 0.977342,-1.57405 0.158279,-0.49869 0.08935,-0.59147 -0.439437,-0.59147 -0.985457,0 -2.840548,1.5016 -2.888378,2.33799 -0.02216,0.38759 -0.05413,0.82598 -0.07104,0.97419 -0.03172,0.27811 -0.360075,0.67824 -1.939182,2.36313 -0.926788,0.98887 -0.9116,1.33616 0.06615,1.51252 0.319525,0.0576 0.529166,0.30366 0.529166,0.621 0,0.43181 -0.206952,0.54036 -1.160426,0.60866 -1.467667,0.10512 -1.919886,-0.28277 -1.101893,-0.94514 l 0.600516,-0.48627 -0.456534,-1.7071 c -0.762844,-2.85249 -0.762321,-2.76969 -0.02057,-3.25571 0.414782,-0.27177 0.6837,-0.693 0.6837,-1.07094 0,-0.89263 0.622213,-1.28747 1.985738,-1.2601 1.228853,0.0247 1.466206,-0.19135 0.8093,-0.73653 -0.276623,-0.22958 -0.523751,-0.23839 -0.908648,-0.0324 -0.786752,0.42106 -1.471236,0.34525 -2.22317,-0.24622 -0.84425,-0.66409 -1.17122,-0.6673 -1.378716,-0.0135 -0.09001,0.2836 -0.398145,0.59006 -0.684743,0.68102 -0.286599,0.091 -0.818126,0.75156 -1.181172,1.468 -0.42105,0.8309 -1.041855,1.54362 -1.714336,1.96813 -0.579839,0.36605 -1.054253,0.84104 -1.054253,1.05554 0,0.54775 -1.798037,1.24478 -2.69999,1.04667 -0.453289,-0.0996 -0.739593,-0.0519 -0.739593,0.12316 0,0.15709 -0.0893,0.25585 -0.198438,0.21947 -0.10914,-0.0364 -0.235413,0.0263 -0.280606,0.13936 -0.118369,0.29604 0.804908,2.30803 1.059129,2.30803 0.430107,0 0.197982,0.77473 -0.346363,1.156 -0.508339,0.35606 -0.527954,0.46472 -0.212515,1.17735 0.202994,0.45859 0.490905,0.73006 0.692319,0.65277 0.227756,-0.0874 0.344807,0.0965 0.344807,0.54183 0,0.85354 -0.510133,1.18663 -0.932563,0.60892 -0.364806,-0.4989 -1.184103,-0.32104 -1.184103,0.25706 0,0.20271 -0.119063,0.36857 -0.264584,0.36857 -0.145521,0 -0.264583,-0.11906 -0.264583,-0.26458 0,-0.50274 -0.541481,-0.26246 -0.828598,0.3677 -0.158448,0.34775 -0.572615,0.76192 -0.92037,0.92037 -0.619779,0.28239 -0.632282,0.26247 -0.632282,-1.00711 0,-0.71236 0.103324,-1.33488 0.229609,-1.38339 0.471305,-0.18103 0.583861,-1.2213 0.176247,-1.62892 -0.358748,-0.35875 -0.405856,-3.17341 -0.405856,-24.249278 V 64.407198 l 0.649432,-0.649432 0.649432,-0.649432 h 20.396969 20.39697 l 0.64943,0.649432 0.649433,0.649432 v 6.121178 c 0,6.019598 -0.0099,6.129685 -0.595312,6.633844 l -0.595313,0.512666 0.595313,0.421912 0.595312,0.421912 v 9.492728 c 0,9.109984 -0.02003,9.492728 -0.496771,9.492728 -0.273222,0 -0.644988,0.178594 -0.826146,0.396875 -0.280818,0.338367 -0.207584,0.396875 0.496771,0.396875 h 0.826146 v 11.373534 11.37353 l -0.937189,0.39158 c -0.515453,0.21537 -1.259593,0.3328 -1.653645,0.26096 -0.972842,-0.17737 -1.333842,0.12605 -1.45469,1.22267 -0.06862,0.62268 -0.447778,1.30086 -1.156272,2.06815 -1.012475,1.0965 -1.091856,1.13126 -2.006843,0.87862 -1.177573,-0.32515 -2.190557,0.20637 -1.813105,0.95134 0.697474,1.37659 0.864108,1.88531 0.702961,2.14605 -0.275542,0.44584 -0.735042,0.34663 -1.600046,-0.34545 -0.75205,-0.60171 -0.774685,-0.67693 -0.463021,-1.53882 0.180226,-0.49841 0.327683,-0.9743 0.327683,-1.05754 0,-0.22803 -0.65523,-0.4366 -2.731772,-0.86957 -1.609122,-0.33551 -1.937176,-0.33908 -2.251758,-0.0245 -0.314581,0.31458 -0.498763,0.29121 -1.264224,-0.16042 -1.221053,-0.72044 -1.19987,-0.13289 0.04776,1.32468 0.519065,0.60641 0.86772,1.22559 0.77479,1.37596 -0.09293,0.15036 0.136795,0.63677 0.510503,1.0809 0.541494,0.64352 0.624044,0.91106 0.406527,1.3175 -0.150116,0.28049 -0.543652,0.50999 -0.874519,0.50999 -0.330869,0 -0.832697,0.17481 -1.115171,0.38846 -0.686393,0.51916 -7.854675,0.58404 -8.238743,0.0746 z m 7.328277,-7.82078 c 0,-0.53846 -0.67611,-1.57932 -0.888145,-1.36729 -0.135498,0.1355 0.595493,1.84588 0.788901,1.84588 0.05458,0 0.09924,-0.21536 0.09924,-0.47859 z m 12.435417,-1.77036 c -0.181158,-0.21828 -0.493393,-0.39688 -0.693854,-0.39688 -0.200464,0 -0.36448,0.1786 -0.36448,0.39688 0,0.25188 0.253484,0.39687 0.693854,0.39687 0.586761,0 0.64302,-0.0613 0.36448,-0.39687 z m 2.275496,-1.12853 c 0.311861,-0.20824 0.899504,-1.22046 0.899504,-1.54941 0,-0.10956 -0.357188,0.14302 -0.79375,0.56127 -0.985094,0.94378 -1.057881,1.62389 -0.105754,0.98814 z m -3.885044,-7.03991 c -0.445323,-0.39846 -1.830036,-0.92311 -1.830036,-0.69337 0,0.15394 0.267891,0.38758 0.595313,0.51919 0.597067,0.23999 1.441384,0.3591 1.234723,0.17418 z m -30.162326,-8.38545 c 0.308397,-0.59168 0.490785,-1.18893 0.405307,-1.32724 -0.253848,-0.41073 -0.648016,0.005 -0.648016,0.68321 0,0.34663 -0.119063,0.70381 -0.264583,0.79375 -0.250831,0.15502 -0.383219,0.92604 -0.159006,0.92604 0.05807,0 0.357902,-0.48409 0.666298,-1.07576 z m 34.557,-6.546055 c -0.08146,-0.08146 -0.294955,-1.7e-4 -0.474433,0.180652 -0.25936,0.261308 -0.22897,0.291698 0.148114,0.148114 0.260937,-0.09936 0.407781,-0.247304 0.326319,-0.328766 z M 34.575213,87.185416 c 0.376071,0 0.819078,-1.271924 1.041563,-2.990445 0.226905,-1.752664 -0.184217,-2.940061 -1.100964,-3.179796 -0.734236,-0.192007 -1.82087,0.326063 -1.82087,0.868128 0,0.238579 -0.130146,0.563926 -0.289214,0.722994 -0.20923,0.20923 -0.200878,0.717778 0.0302,1.838854 0.416801,2.022135 0.968289,3.093881 1.489165,2.894002 0.220347,-0.08455 0.512902,-0.153737 0.650123,-0.153737 z m 0.737151,-18.158191 c -0.38812,-0.467655 -1.823672,-0.47998 -1.823672,-0.01566 0,0.190841 0.258804,0.624778 0.575121,0.964305 l 0.575121,0.61732 0.487198,-0.601664 c 0.373229,-0.460918 0.416793,-0.686495 0.186232,-0.964305 z m 15.215147,62.145165 c 0.10468,-0.1819 0.06424,-0.33073 -0.08987,-0.33073 -0.154109,0 -0.280199,-0.23812 -0.280199,-0.52916 0,-0.29923 0.17639,-0.52917 0.405927,-0.52917 0.43344,0 0.435385,1.11712 0.0026,1.51135 -0.125847,0.11464 -0.143166,0.0596 -0.03849,-0.12229 z m -25.318092,-6.46276 c -0.594071,-0.21669 -0.678357,-0.34207 -0.430623,-0.64057 0.567155,-0.68338 2.359896,-0.25477 2.359896,0.5642 0,0.4462 -0.825762,0.47888 -1.929273,0.0764 z m -1.906141,-1.10136 c -0.290467,-0.16898 -0.962444,-0.63465 -1.493283,-1.03483 -0.530838,-0.40019 -1.147909,-0.72761 -1.371268,-0.72761 -0.223359,0 -0.839941,-0.40916 -1.370183,-0.90924 -0.742925,-0.70067 -0.9445,-1.07948 -0.878735,-1.65138 0.104849,-0.91179 0.819014,-1.10968 1.429893,-0.39623 0.436375,0.50965 0.457552,0.5067 1.509692,-0.21072 l 1.067109,-0.72762 0.94974,0.64591 c 0.522357,0.35525 0.96685,0.84471 0.987761,1.0877 0.02091,0.24298 0.05068,0.5826 0.06615,0.75469 0.01547,0.17209 0.26625,0.38848 0.557292,0.48085 0.652373,0.20705 0.768737,1.71979 0.132291,1.71979 -0.218281,0 -0.396875,0.0963 -0.396875,0.21401 0,0.11771 -0.148828,0.40479 -0.330729,0.63796 -0.26613,0.34114 -0.433882,0.36394 -0.858851,0.11672 z m -2.250003,-2.27599 c 0,-0.13693 -0.119062,-0.32255 -0.264583,-0.41249 -0.145521,-0.0899 -0.264583,0.0221 -0.264583,0.24897 0,0.22687 0.119062,0.41249 0.264583,0.41249 0.145521,0 0.264583,-0.11204 0.264583,-0.24897 z m 2.38125,-0.92604 c 0,-0.0642 -0.119062,-0.19026 -0.264583,-0.2802 -0.145521,-0.0899 -0.264583,-0.0374 -0.264583,0.11668 0,0.1541 0.119062,0.28019 0.264583,0.28019 0.145521,0 0.264583,-0.0525 0.264583,-0.11667 z m 2.654427,0.92648 c -0.164199,-0.30681 -0.176518,-0.57373 -0.03064,-0.66389 0.317402,-0.19616 1.131013,0.61644 0.934905,0.93375 -0.241935,0.39146 -0.608958,0.28193 -0.904265,-0.26986 z m -0.625955,-3.10286 c -0.361081,-0.36108 -0.158079,-0.65147 0.3982,-0.56962 0.727102,0.10699 0.971491,0.74601 0.285307,0.74601 -0.278915,0 -0.586493,-0.0794 -0.683507,-0.17639 z m -1.367013,-1.14653 c -0.192935,-0.31217 0.05733,-0.79375 0.412489,-0.79375 0.136933,0 0.248969,0.23813 0.248969,0.52917 0,0.55803 -0.384938,0.712 -0.661458,0.26458 z m 9.132176,-0.6709 c 0.0072,-0.4555 0.490924,-1.03898 0.693417,-0.83649 0.108391,0.10839 -0.0042,0.39835 -0.250197,0.64435 -0.245999,0.246 -0.445448,0.33246 -0.44322,0.19214 z m -12.571473,-0.38697 c -0.08978,-0.14526 0.01382,-0.51689 0.230216,-0.82585 0.282232,-0.40294 0.325019,-0.74171 0.151363,-1.19846 -0.204866,-0.53884 -0.142167,-0.68227 0.407792,-0.93285 0.495486,-0.22575 0.746028,-0.2163 1.05459,0.0398 0.341958,0.2838 0.404711,0.24736 0.404711,-0.23499 0,-0.48137 0.07981,-0.52816 0.509065,-0.29843 0.279986,0.14984 0.688238,0.6316 0.907227,1.07058 0.387508,0.77677 0.378066,0.80852 -0.35287,1.1865 -0.413067,0.21361 -0.814408,0.53971 -0.89187,0.72467 -0.102743,0.24533 -0.220119,0.21105 -0.433927,-0.12672 -0.422453,-0.6674 -1.023785,-0.56931 -1.216476,0.19843 -0.17267,0.68798 -0.489221,0.85136 -0.769821,0.39734 z m 5.015917,-1.0764 c -0.229113,-0.37071 -0.0095,-0.56645 1.015896,-0.90548 0.559018,-0.18482 0.822187,-0.4286 0.773904,-0.71687 -0.0995,-0.59403 0.373846,-0.84443 0.580121,-0.30689 0.151505,0.39482 0.208239,0.39272 0.669497,-0.0247 0.608296,-0.5505 1.429453,-0.44709 1.553223,0.1956 0.149038,0.77389 -0.991112,1.49269 -2.383334,1.50257 -0.682636,0.005 -1.314741,0.12786 -1.404678,0.27339 -0.213424,0.34532 -0.585354,0.33719 -0.804629,-0.0176 z m 13.988519,-1.90062 c 0.143415,-0.90951 0.476826,-1.93335 0.740911,-2.27521 0.438262,-0.56733 0.446175,-0.7029 0.0907,-1.55367 -0.554141,-1.32625 -0.496041,-1.60419 0.456425,-2.18342 1.192517,-0.72521 1.489355,-0.36641 1.428083,1.72618 -0.04471,1.52702 0.01662,1.75953 0.557691,2.11405 0.795248,0.52106 0.772668,1.13034 -0.05353,1.44446 -0.363802,0.13832 -0.661458,0.44654 -0.661458,0.68494 0,0.33112 -0.187405,0.40595 -0.79375,0.31696 -0.678548,-0.0996 -0.79375,-0.0313 -0.79375,0.47083 0,0.51812 -0.444561,0.90852 -1.034552,0.90852 -0.108638,0 -0.08018,-0.74414 0.06323,-1.65364 z m -21.115956,-2.71433 c -0.528185,-0.43117 -0.700568,-0.73127 -0.522398,-0.90944 0.335295,-0.33529 2.056728,0.65812 1.908901,1.1016 -0.176037,0.52812 -0.571257,0.47334 -1.386503,-0.19216 z m 21.7017,-4.08041 c -0.08373,-0.13547 -0.03122,-0.32109 0.116676,-0.41249 0.147894,-0.0914 0.268899,0.0194 0.268899,0.2463 0,0.46475 -0.158766,0.53318 -0.385575,0.16619 z"
         id="path840"
         inkscape:connector-curvature="0" />
      <path
         style="fill:#f6d161;stroke-width:0.26458332"
         d="m 32.658161,131.0401 c -0.221377,-0.1819 -0.559458,-0.83253 -0.75129,-1.44585 -0.347682,-1.11159 -0.345693,-1.11829 0.62828,-2.11667 1.802762,-1.84792 2.588797,-3.35091 2.740437,-5.24001 0.137546,-1.71354 0.137181,-1.71466 -0.564328,-1.71466 -0.542448,0 -0.802846,0.21156 -1.145912,0.93098 -0.564667,1.18411 -0.980247,1.05137 -1.083563,-0.34612 -0.140252,-1.8971 0.423399,-2.32777 3.291694,-2.51506 0.507862,-0.0332 1.027775,-0.2987 1.340645,-0.6847 0.646169,-0.79722 1.16977,-0.559 2.595415,1.18081 1.437927,1.7548 2.037624,3.01486 1.815821,3.81534 -0.100804,0.36381 -0.155265,0.87929 -0.121026,1.14553 0.04726,0.36749 -0.08512,0.46307 -0.549695,0.39688 -0.478872,-0.0682 -0.646788,-0.30277 -0.772157,-1.07852 -0.170458,-1.05474 -0.887277,-2.05139 -1.475423,-2.05139 -0.195727,0 -0.355867,0.19683 -0.355867,0.4374 0,0.75906 1.601192,3.89299 2.434677,4.76526 0.439896,0.46037 0.718362,0.96882 0.618813,1.1299 -0.09955,0.16107 0.120216,0.65083 0.48837,1.08836 0.77094,0.91621 0.656365,1.57492 -0.273939,1.57492 -0.354319,0 -0.899811,0.23812 -1.212207,0.52916 -0.505785,0.47121 -0.933715,0.52917 -3.907118,0.52917 -2.280241,0 -3.466763,-0.10488 -3.741627,-0.33073 z m 16.95381,-6.5789 c -0.258283,-0.48261 -0.184489,-0.66468 0.536189,-1.32292 0.822195,-0.75096 1.692571,-0.98586 1.972802,-0.53244 0.07847,0.12696 -0.06333,0.72106 -0.315114,1.32022 -0.375951,0.89466 -0.586179,1.08987 -1.176078,1.09208 -0.46238,0.002 -0.825002,-0.19669 -1.017799,-0.55694 z m -20.621196,-1.6581 c 0,-0.21828 0.119063,-0.47046 0.264583,-0.56039 0.145521,-0.0899 0.264584,0.0151 0.264584,0.23335 0,0.21828 -0.119063,0.47046 -0.264584,0.5604 -0.14552,0.0899 -0.264583,-0.0151 -0.264583,-0.23336 z m -6.833046,-0.5113 c -0.551585,-0.58714 -0.755722,-1.50026 -0.412195,-1.84378 0.311675,-0.31168 1.953559,1.25227 1.953567,1.86083 10e-6,0.79261 -0.788938,0.78388 -1.541372,-0.017 z m 26.511987,-1.09675 c -0.09866,-0.25711 -0.343273,-0.36593 -0.623001,-0.27715 -0.253307,0.0804 -0.65314,0.0723 -0.888519,-0.018 -0.437774,-0.16799 -2.292421,-2.58031 -2.292421,-2.98173 0,-0.12226 0.386953,-0.43194 0.859896,-0.68816 1.043844,-0.56552 1.780503,-1.90787 1.591005,-2.89916 -0.135501,-0.70882 -0.116956,-0.72047 0.888167,-0.5581 0.564608,0.0912 1.800463,0.34039 2.746348,0.55373 2.278034,0.51383 3.750829,0.58678 3.890653,0.19272 0.139049,-0.39186 -1.392994,-1.23237 -2.360768,-1.29515 -0.792253,-0.0514 -3.924409,-2.00118 -3.462211,-2.15525 0.158758,-0.0529 0.229182,-0.32363 0.156496,-0.60158 -0.07439,-0.28446 0.111368,-0.81495 0.424963,-1.21362 0.68217,-0.86724 0.697524,-1.22156 0.07726,-1.7829 -0.642371,-0.58134 -1.131268,-0.0966 -0.927941,0.92001 0.116527,0.58265 0.05281,0.75516 -0.278916,0.75516 -0.343308,0 -0.429948,-0.28529 -0.429948,-1.41573 0,-1.83653 0.41116,-3.03648 1.355352,-3.95549 0.429786,-0.41833 0.761314,-1.02322 0.761314,-1.38906 0,-1.27463 2.70332,-2.988949 6.019271,-3.81714 l 0.859896,-0.214768 v 7.761728 c 0,5.16056 -0.09358,7.81957 -0.279233,7.93431 -0.153578,0.0949 -0.241279,0.36965 -0.194892,0.61052 0.115564,0.60007 -2.086505,2.73576 -3.552532,3.44546 -1.350851,0.65393 -1.914059,1.1992 -2.546254,2.46513 -0.485677,0.97254 -1.521955,1.33314 -1.793981,0.62426 z m -0.108188,-2.0612 c -0.0093,-1.53156 -0.485183,-2.41098 -1.228379,-2.26992 -0.617476,0.1172 -0.879723,2.33607 -0.276098,2.33607 0.20329,0 0.505238,0.29765 0.671,0.66146 0.489362,1.07404 0.842523,0.76574 0.833477,-0.72761 z m 2.389663,-2.44739 c 0,-0.21828 -0.119062,-0.39688 -0.264583,-0.39688 -0.145521,0 -0.264583,0.1786 -0.264583,0.39688 0,0.21828 0.119062,0.39687 0.264583,0.39687 0.145521,0 0.264583,-0.17859 0.264583,-0.39687 z m 1.172372,-6.83814 c 0.314912,-1.24918 -0.01791,-1.64925 -0.999829,-1.20185 -0.829148,0.37778 -0.843738,0.47157 -0.238688,1.53444 0.577641,1.01472 0.922189,0.92219 1.238517,-0.33259 z m 2.881098,11.30749 c -0.271264,-0.7069 0.211047,-3.24701 0.745567,-3.92654 0.972748,-1.23665 1.28638,-0.89863 1.28638,1.38644 v 2.06154 l -0.94366,0.42772 c -0.804072,0.36445 -0.965057,0.37197 -1.088287,0.0508 z m -36.597219,-1.69123 c 0,-0.29398 0.176389,-0.52917 0.396875,-0.52917 0.220486,0 0.396875,0.23519 0.396875,0.52917 0,0.29398 -0.176389,0.52917 -0.396875,0.52917 -0.220486,0 -0.396875,-0.23519 -0.396875,-0.52917 z m -4.7625,-3.95237 c 0,-0.71236 0.103324,-1.33488 0.229609,-1.38339 0.471305,-0.18103 0.583861,-1.2213 0.176247,-1.62892 -0.358732,-0.35873 -0.405856,-3.16717 -0.405856,-24.18775 V 64.530253 l 0.742082,-0.710959 0.742082,-0.71096 h 20.211669 20.211669 l 0.742082,0.71096 0.742082,0.710959 v 6.05965 c 0,5.955792 -0.01021,6.068437 -0.595312,6.572317 l -0.595313,0.512666 0.595313,0.421912 0.595312,0.421912 v 9.492728 9.492728 h -0.668062 c -0.792107,0 -3.231986,1.204484 -6.859458,3.386274 -1.448001,0.87092 -2.774095,1.52925 -2.946874,1.46295 -0.172778,-0.0663 -0.384058,-0.47013 -0.469511,-0.89739 -0.117599,-0.58801 -0.301678,-0.77585 -0.757293,-0.77278 -0.792858,0.005 -1.377074,0.39169 -1.149376,0.76012 0.09999,0.16179 0.05572,0.29416 -0.09839,0.29416 -0.1557,0 -0.280199,-0.52903 -0.280199,-1.19063 0,-0.65484 -0.05178,-1.190621 -0.115068,-1.190621 -0.499941,0 -1.472432,0.588597 -1.472432,0.891181 0,0.53674 -0.736667,0.74549 -1.392368,0.39457 l -0.560284,-0.29986 0.579451,-0.46921 c 1.096857,-0.888182 0.485989,-1.453877 -0.684594,-0.633971 -0.33483,0.234524 -0.588039,0.690243 -0.588039,1.058331 0,0.40413 -0.151884,0.64646 -0.405179,0.64646 -0.619399,0 -0.771572,-0.75353 -0.265176,-1.313086 0.248685,-0.274793 0.406979,-0.716843 0.351765,-0.982334 -0.07742,-0.372248 -0.267326,-0.221893 -0.829916,0.657069 -0.423,0.660873 -0.666879,1.337161 -0.580426,1.609551 0.172312,0.54291 -0.04647,0.60229 -2.410869,0.65441 -1.266512,0.0279 -1.750257,-0.0765 -2.186798,-0.47179 -0.404776,-0.36657 -1.053866,-0.53401 -2.335873,-0.60257 -1.576518,-0.0843 -1.824137,-0.0303 -2.211117,0.48279 -0.517006,0.6854 -1.297244,0.51079 -1.297244,-0.29032 0,-0.44493 -0.171266,-0.53747 -0.994688,-0.53747 -0.714454,0 -1.089599,-0.151978 -1.331571,-0.539433 -0.469137,-0.751208 -0.904487,-0.401566 -0.528227,0.424233 0.254264,0.55805 0.210463,0.77055 -0.28437,1.37961 -0.32171,0.39598 -0.788873,1.04552 -1.03814,1.44342 -0.595984,0.95137 -1.004971,1.08041 -1.791316,0.56518 -0.778456,-0.51007 -1.440021,-0.13135 -1.440021,0.82435 0,0.32614 -0.303348,0.89633 -0.674106,1.26709 -0.410297,0.41029 -0.565613,0.74116 -0.396875,0.84544 0.152477,0.0942 0.277231,0.41517 0.277231,0.7132 0,0.39079 -0.1195,0.496 -0.428622,0.37738 -0.260862,-0.1001 -0.615467,0.051 -0.906004,0.38595 -0.262559,0.30273 -0.545929,0.5426 -0.629711,0.53304 -0.08378,-0.01 -0.212092,-0.0174 -0.285135,-0.0174 -0.07304,0 0.10555,0.44472 0.396875,0.98827 0.729178,1.36049 0.687278,2.13991 -0.131778,2.45132 -0.363802,0.13831 -0.661458,0.42711 -0.661458,0.64176 0,0.21465 -0.192127,0.49779 -0.426949,0.62921 -0.342008,0.19139 -0.368327,0.34846 -0.132291,0.7895 0.404118,0.7551 0.369324,1.11453 -0.107891,1.11453 -0.221401,0 -0.532187,0.28452 -0.690634,0.63228 -0.158448,0.34775 -0.572615,0.76192 -0.92037,0.92037 -0.619779,0.28239 -0.632282,0.26247 -0.632282,-1.00711 z M 42.265254,98.124616 c 0.266121,-0.240834 0.483854,-0.542679 0.483854,-0.670766 0,-0.353219 -0.974058,0.242816 -1.151194,0.704424 -0.202187,0.526894 0.0627,0.513532 0.66734,-0.03366 z m -7.720192,-10.9392 c 0.390951,0 1.265757,-2.211668 1.438987,-3.63802 0.09279,-0.763985 0.07164,-1.389063 -0.04699,-1.389063 -0.118629,0 -0.350513,-0.357187 -0.515297,-0.79375 -0.196812,-0.521415 -0.483139,-0.79375 -0.834532,-0.79375 -0.960055,0 -1.896806,0.506596 -2.145298,1.160179 -0.133935,0.352276 -0.353887,0.708713 -0.488783,0.792083 -0.293435,0.181353 0.414781,2.820886 1.096977,4.088454 0.317707,0.590321 0.60662,0.830576 0.874962,0.727604 0.220347,-0.08455 0.499335,-0.153737 0.619972,-0.153737 z m 2.11863,-11.112499 c 0,-0.145521 -0.0525,-0.264584 -0.116677,-0.264584 -0.06417,0 -0.190261,0.119063 -0.280198,0.264584 -0.08994,0.145521 -0.03743,0.264583 0.116676,0.264583 0.154109,0 0.280199,-0.119062 0.280199,-0.264583 z m -1.351328,-7.045692 c -0.38812,-0.467655 -1.823672,-0.47998 -1.823672,-0.01566 0,0.190841 0.258804,0.624778 0.575121,0.964305 l 0.575121,0.61732 0.487198,-0.601664 c 0.373229,-0.460918 0.416793,-0.686495 0.186232,-0.964305 z M 56.507441,116.025 c 0,-0.14552 0.119063,-0.26458 0.264584,-0.26458 0.145521,0 0.264583,0.11906 0.264583,0.26458 0,0.14552 -0.119062,0.26458 -0.264583,0.26458 -0.145521,0 -0.264584,-0.11906 -0.264584,-0.26458 z"
         id="path838"
         inkscape:connector-curvature="0" />
      <path
         style="fill:#eaa15a;stroke-width:0.26458332"
         d="m 32.658161,131.0401 c -0.221377,-0.1819 -0.559458,-0.83253 -0.75129,-1.44585 -0.347682,-1.11159 -0.345693,-1.11829 0.62828,-2.11667 1.802762,-1.84792 2.588797,-3.35091 2.740437,-5.24001 0.137546,-1.71354 0.137181,-1.71466 -0.564328,-1.71466 -0.542448,0 -0.802846,0.21156 -1.145912,0.93098 -0.564667,1.18411 -0.980247,1.05137 -1.083563,-0.34612 -0.140252,-1.8971 0.423399,-2.32777 3.291694,-2.51506 0.507862,-0.0332 1.027775,-0.2987 1.340645,-0.6847 0.646169,-0.79722 1.16977,-0.559 2.595415,1.18081 1.437927,1.7548 2.037624,3.01486 1.815821,3.81534 -0.100804,0.36381 -0.155265,0.87929 -0.121026,1.14553 0.04726,0.36749 -0.08512,0.46307 -0.549695,0.39688 -0.478872,-0.0682 -0.646788,-0.30277 -0.772157,-1.07852 -0.170458,-1.05474 -0.887277,-2.05139 -1.475423,-2.05139 -0.195727,0 -0.355867,0.19683 -0.355867,0.4374 0,0.75906 1.601192,3.89299 2.434677,4.76526 0.439896,0.46037 0.718362,0.96882 0.618813,1.1299 -0.09955,0.16107 0.120216,0.65083 0.48837,1.08836 0.77094,0.91621 0.656365,1.57492 -0.273939,1.57492 -0.354319,0 -0.899811,0.23812 -1.212207,0.52916 -0.505785,0.47121 -0.933715,0.52917 -3.907118,0.52917 -2.280241,0 -3.466763,-0.10488 -3.741627,-0.33073 z m 16.95381,-6.5789 c -0.258283,-0.48261 -0.184489,-0.66468 0.536189,-1.32292 0.822195,-0.75096 1.692571,-0.98586 1.972802,-0.53244 0.07847,0.12696 -0.06333,0.72106 -0.315114,1.32022 -0.375951,0.89466 -0.586179,1.08987 -1.176078,1.09208 -0.46238,0.002 -0.825002,-0.19669 -1.017799,-0.55694 z m -20.621196,-1.6581 c 0,-0.21828 0.119063,-0.47046 0.264583,-0.56039 0.145521,-0.0899 0.264584,0.0151 0.264584,0.23335 0,0.21828 -0.119063,0.47046 -0.264584,0.5604 -0.14552,0.0899 -0.264583,-0.0151 -0.264583,-0.23336 z m -6.833046,-0.5113 c -0.551585,-0.58714 -0.755722,-1.50026 -0.412195,-1.84378 0.311675,-0.31168 1.953559,1.25227 1.953567,1.86083 10e-6,0.79261 -0.788938,0.78388 -1.541372,-0.017 z m 26.500202,-1.05309 c -0.121155,-0.20549 -0.398875,-0.44121 -0.617156,-0.52382 -0.315802,-0.11952 -0.302289,-0.15447 0.06615,-0.17109 0.380656,-0.0172 0.461523,-0.26798 0.454607,-1.40995 -0.0093,-1.53163 -0.485236,-2.41108 -1.228379,-2.26973 -0.382635,0.0728 -0.499771,0.38447 -0.563716,1.49994 -0.04647,0.81068 0.05146,1.56733 0.230833,1.78346 0.244309,0.29437 0.229894,0.37539 -0.06679,0.37539 -0.359613,0 -2.067705,-2.15764 -2.067705,-2.6119 0,-0.11835 0.386953,-0.42482 0.859896,-0.68104 1.043844,-0.56552 1.780503,-1.90787 1.591005,-2.89916 -0.135501,-0.70882 -0.116956,-0.72047 0.888167,-0.5581 0.564608,0.0912 1.800463,0.34039 2.746348,0.55373 2.278034,0.51383 3.750829,0.58678 3.890653,0.19272 0.139049,-0.39186 -1.392994,-1.23237 -2.360768,-1.29515 -0.792253,-0.0514 -3.924409,-2.00118 -3.462211,-2.15525 0.158758,-0.0529 0.229182,-0.32363 0.156496,-0.60158 -0.07439,-0.28446 0.111368,-0.81495 0.424963,-1.21362 0.68217,-0.86724 0.697524,-1.22156 0.07726,-1.7829 -0.642371,-0.58134 -1.131268,-0.0966 -0.927941,0.92001 0.116527,0.58265 0.05281,0.75516 -0.278916,0.75516 -0.344136,0 -0.429948,-0.287 -0.429948,-1.43798 0,-1.79594 0.372171,-2.84628 0.971312,-2.74125 0.434244,0.0761 0.837223,-0.88326 1.27164,-3.02745 0.142603,-0.70384 0.406056,-0.90127 3.149581,-2.360267 1.28483,-0.683268 2.728963,-1.103924 3.186753,-0.928254 0.365512,0.140261 0.416547,1.082831 0.416547,7.693161 0,5.00029 -0.09389,7.59134 -0.279233,7.70589 -0.153578,0.0949 -0.241279,0.36965 -0.194892,0.61052 0.115564,0.60007 -2.086505,2.73576 -3.552532,3.44546 -1.350851,0.65393 -1.914059,1.1992 -2.546254,2.46513 -0.471025,0.9432 -1.433555,1.29922 -1.805766,0.66792 z m 2.29326,-4.55225 c 0,-0.21828 -0.119062,-0.39688 -0.264583,-0.39688 -0.145521,0 -0.264583,0.1786 -0.264583,0.39688 0,0.21828 0.119062,0.39687 0.264583,0.39687 0.145521,0 0.264583,-0.17859 0.264583,-0.39687 z m 1.172372,-6.83814 c 0.314912,-1.24918 -0.01791,-1.64925 -0.999829,-1.20185 -0.829148,0.37778 -0.843738,0.47157 -0.238688,1.53444 0.577641,1.01472 0.922189,0.92219 1.238517,-0.33259 z m -2.493076,-4.14062 c -0.513078,-0.31721 -0.919348,0.0891 -0.689081,0.6892 0.16728,0.43592 0.20239,0.43638 0.630444,0.008 0.395623,-0.39572 0.403085,-0.48446 0.05864,-0.69741 z m 2.379038,-0.38271 c 0,-0.20969 -0.119063,-0.45485 -0.264584,-0.54478 -0.14552,-0.0899 -0.264583,0.0816 -0.264583,0.38126 0,0.29963 0.119063,0.54478 0.264583,0.54478 0.145521,0 0.264584,-0.17157 0.264584,-0.38126 z m -33.602083,14.13959 c 0,-0.29398 0.176389,-0.52917 0.396875,-0.52917 0.220486,0 0.396875,0.23519 0.396875,0.52917 0,0.29398 -0.176389,0.52917 -0.396875,0.52917 -0.220486,0 -0.396875,-0.23519 -0.396875,-0.52917 z m 38.10405,-0.97657 c 0.0022,-0.11773 0.119467,-0.39265 0.260533,-0.61093 0.221033,-0.34202 0.25704,-0.33504 0.260532,0.0505 0.0021,0.24607 -0.115011,0.52099 -0.260532,0.61093 -0.145521,0.0899 -0.262761,0.0672 -0.260533,-0.0505 z m -0.0041,-2.46301 c 0,-0.14552 0.119063,-0.26458 0.264584,-0.26458 0.145521,0 0.264583,0.11906 0.264583,0.26458 0,0.14552 -0.119062,0.26458 -0.264583,0.26458 -0.145521,0 -0.264584,-0.11906 -0.264584,-0.26458 z m -42.068749,-1.29052 c 0,-0.49555 0.696123,-1.27655 0.929662,-1.04301 0.167473,0.16747 -0.482885,1.53513 -0.731225,1.53771 -0.10914,0.001 -0.198437,-0.22148 -0.198437,-0.4947 z m 0.705556,-1.79629 c -0.379101,-0.3791 -0.145135,-0.8797 0.485069,-1.03788 0.766884,-0.19247 0.813923,-0.42374 0.258581,-1.2713 -0.441646,-0.67403 -0.280396,-1.48318 0.295574,-1.48318 0.44828,0 1.774759,2.03783 1.556429,2.39109 -0.08659,0.14011 -0.331953,0.25475 -0.545248,0.25475 -0.213294,0 -0.500977,0.29765 -0.639294,0.66145 -0.236975,0.62329 -1.007889,0.88829 -1.411111,0.48507 z m -1.499306,-4.9986 c 0,-0.384 0.114523,-0.60629 0.264583,-0.51355 0.344128,0.21268 0.344128,1.19063 0,1.19063 -0.145521,0 -0.264583,-0.30469 -0.264583,-0.67708 z m 1.058333,-0.80018 c 0,-0.23041 0.141387,-0.3718 0.314193,-0.31419 0.490597,0.16353 0.571966,0.73311 0.104731,0.73311 -0.230408,0 -0.418924,-0.18851 -0.418924,-0.41892 z m 3.638021,0.13315 c -0.51456,-0.29971 -0.612079,-0.91379 -0.186847,-1.1766 0.386798,-0.23905 1.046743,0.36973 1.046743,0.9656 0,0.55783 -0.186041,0.60348 -0.859896,0.211 z m -4.633627,-3.27369 c 0.0288,-0.66167 0.145527,-1.20304 0.259399,-1.20304 0.113872,0 0.207041,-0.17859 0.207041,-0.39687 0,-0.21828 -0.116253,-0.39688 -0.258339,-0.39688 -0.164197,0 -0.256602,-4.215133 -0.25357,-11.566856 0.0042,-10.267248 0.05273,-11.619852 0.431638,-12.03854 0.234777,-0.259426 0.706071,-0.471684 1.047319,-0.471684 0.663723,0 0.751181,-0.177603 0.377832,-0.767271 -0.192931,-0.304716 -0.368152,-0.265244 -0.988136,0.222594 l -0.753619,0.59299 -0.07079,-6.685563 -0.07079,-6.685563 0.715601,-0.746926 0.715601,-0.746927 h 8.02029 c 4.41116,0 8.020291,0.07129 8.020291,0.15843 0,0.36442 -1.683188,1.693653 -2.144648,1.693653 -0.583938,0 -0.688117,1.00842 -0.198662,1.922976 0.194441,0.363317 0.207847,0.596831 0.03752,0.653606 -0.145752,0.04858 -0.485753,0.249751 -0.755558,0.447037 -0.420487,0.307468 -0.439134,0.420659 -0.130552,0.792478 0.395504,0.476553 0.266495,0.627628 -1.504455,1.761782 -1.505441,0.964117 -0.755758,1.692626 0.950189,0.923351 0.771712,-0.347993 1.14869,-0.38433 1.722787,-0.166059 0.404201,0.153677 1.100459,0.279412 1.547241,0.279412 0.526203,0 1.027835,0.232532 1.424155,0.660168 0.520399,0.56152 0.716047,0.620542 1.309313,0.394982 0.38362,-0.145852 0.805244,-0.198591 0.936941,-0.117197 0.131698,0.08139 0.650489,-0.04706 1.152869,-0.285457 0.50238,-0.238394 1.152688,-0.357503 1.44513,-0.264686 0.292441,0.09282 1.013503,0.03903 1.602358,-0.119536 0.965154,-0.259889 1.1661,-0.223433 2.039407,0.369993 0.661548,0.449535 1.102265,0.587126 1.389756,0.433883 0.499401,-0.266198 4.006643,-0.200058 4.466634,0.08423 0.175993,0.108771 0.31999,0.408109 0.31999,0.665196 0,0.257087 0.275564,0.72631 0.612365,1.042718 0.746255,0.701069 1.231434,0.76787 0.612889,0.08438 -0.533122,-0.589091 -0.311592,-1.36118 0.390554,-1.36118 0.275471,0 0.500859,-0.09525 0.500859,-0.211666 0,-0.436722 -0.659794,-0.846667 -1.362686,-0.846667 -0.400228,0 -0.8229,-0.161226 -0.939271,-0.358281 -0.328253,-0.555837 -1.685171,-0.700209 -2.369122,-0.252068 -0.556085,0.364361 -0.647652,0.343826 -1.219819,-0.273551 -0.730488,-0.788209 -1.416582,-0.577949 -1.123836,0.34441 0.163494,0.51513 0.127418,0.549643 -0.302416,0.289302 -2.129643,-1.289871 -2.337656,-1.372029 -3.114406,-1.230086 -1.334759,0.243914 -1.641628,-0.122631 -1.206491,-1.441111 0.33953,-1.028785 0.328627,-1.137309 -0.149411,-1.487238 -0.283659,-0.207641 -0.783509,-0.310377 -1.11098,-0.228343 -0.709854,0.177825 -0.715511,0.14448 -0.169683,-1.000134 0.391116,-0.82018 0.391116,-0.959293 0,-1.715629 -0.899756,-1.739936 -1.472065,-1.643104 9.711328,-1.643104 H 55.61469 l 0.710959,0.742082 0.710959,0.742082 -0.0083,5.674063 -0.0083,5.674064 -0.658254,0.479228 c -0.816229,0.594238 -1.520373,0.397033 -1.965487,-0.55046 -0.196201,-0.417641 -0.389913,-0.582962 -0.459076,-0.391789 -0.06581,0.181901 -0.466918,0.330729 -0.891352,0.330729 -0.969563,0 -0.987046,0.383605 -0.0441,0.967576 0.400183,0.247833 0.846667,0.583388 0.992188,0.745677 0.145521,0.162288 0.859896,0.482487 1.5875,0.711553 l 1.322916,0.416482 0.07259,4.579027 c 0.05526,3.485921 -0.0079,4.63011 -0.264583,4.793013 -0.264491,0.167856 -0.26588,0.214859 -0.0065,0.218037 0.219945,0.0027 0.330729,0.447184 0.330729,1.326968 0,0.727604 -0.119062,1.322917 -0.264583,1.322917 -0.145521,0 -0.264584,0.178594 -0.264584,0.396875 0,0.218281 0.119063,0.396875 0.264584,0.396875 0.16053,0 0.264583,1.157327 0.264583,2.942812 0,2.601989 -0.04654,2.904191 -0.401839,2.609318 -0.326485,-0.270957 -0.487732,-0.257797 -0.859895,0.07019 -0.251931,0.222022 -1.172433,0.762878 -2.045558,1.201899 -0.873125,0.43902 -2.283208,1.219274 -3.133521,1.733894 -0.85031,0.51463 -1.920126,1.01785 -2.377368,1.11828 -0.457243,0.10042 -1.085406,0.34906 -1.395921,0.55251 -0.527743,0.34579 -0.575027,0.31765 -0.724871,-0.43157 -0.122444,-0.61223 -0.302437,-0.80054 -0.762225,-0.79744 -0.792858,0.005 -1.377074,0.39169 -1.149376,0.76012 0.09999,0.16179 0.05572,0.29416 -0.09839,0.29416 -0.156324,0 -0.280191,-0.53448 -0.280191,-1.20903 0,-1.102468 -0.05247,-1.201576 -0.595313,-1.124479 -0.327422,0.0465 -0.711861,0.350158 -0.854308,0.674789 -0.332549,0.75787 -0.826696,0.93975 -1.530247,0.56322 l -0.560284,-0.29986 0.579451,-0.469212 c 0.650893,-0.527063 0.740648,-0.936707 0.248721,-1.135203 -0.181901,-0.0734 -0.08129,-0.142851 0.223576,-0.154339 0.522092,-0.01968 1.43007,-0.76603 1.43007,-1.175509 0,-0.102804 -0.230298,-0.06366 -0.511773,0.08698 -0.281474,0.15064 -0.798962,0.273891 -1.149974,0.273891 -1.542422,0 -3.602513,2.010907 -3.237683,3.160382 0.167137,0.52661 -0.06617,0.58845 -2.415371,0.64023 -1.266512,0.0279 -1.750257,-0.0765 -2.186798,-0.47179 -0.404776,-0.36657 -1.053866,-0.53401 -2.335873,-0.60257 -1.576518,-0.0843 -1.824137,-0.0303 -2.211117,0.48279 -0.517006,0.6854 -1.297244,0.51079 -1.297244,-0.29032 0,-0.44493 -0.171266,-0.53747 -0.994688,-0.53747 -0.714454,0 -1.089599,-0.151979 -1.331571,-0.539434 -0.469137,-0.751208 -0.904487,-0.401566 -0.528227,0.424234 0.254264,0.55805 0.210463,0.77055 -0.28437,1.37961 -0.32171,0.39598 -0.788873,1.04552 -1.03814,1.44342 -0.595843,0.95115 -1.004966,1.08041 -1.790482,0.56573 -0.357418,-0.23419 -0.914864,-0.36118 -1.242908,-0.28315 -1.06392,0.25309 -2.588895,0.8822 -2.905197,1.1985 -0.465231,0.46524 -0.941121,0.37245 -1.129208,-0.22016 -0.174935,-0.55117 -1.190625,-0.75056 -1.190625,-0.23373 0,0.16717 -0.234482,0.23413 -0.540037,0.15422 -0.430565,-0.11259 -0.508835,-0.0429 -0.386113,0.34375 0.08466,0.26674 0.03235,0.56011 -0.116237,0.65194 -0.171292,0.10587 -0.251,-0.2733 -0.217803,-1.03606 z m 2.964978,-3.37858 c 0.462693,-0.660582 0.556225,-2.466517 0.141036,-2.723117 -0.149488,-0.09239 -0.510686,0.374814 -0.806131,1.042717 -0.294409,0.66556 -0.708311,1.21011 -0.919783,1.21011 -0.39287,0 -0.52597,0.56408 -0.208105,0.88194 0.380755,0.38076 1.402225,0.14624 1.792983,-0.41165 z m 33.167294,-2.639874 c 0.405974,-0.405974 0.410509,-1.005417 0.0076,-1.005417 -0.369308,0 -1.277604,0.781561 -1.277604,1.099341 0,0.335902 0.907272,0.268804 1.27,-0.09392 z m -6.305497,-2.03 c -0.0071,-0.36177 -0.07053,-0.348506 -0.396875,0.08297 -0.505613,0.66848 -0.50026,1.099195 0.0084,0.677034 0.218281,-0.181158 0.393089,-0.523158 0.388461,-0.76 z m 4.006951,-0.312433 c 0.260895,-0.501568 0.585234,-1.040961 0.720757,-1.19865 0.135525,-0.157686 0.32903,-0.66289 0.430016,-1.122669 0.140367,-0.639091 0.05312,-1.001853 -0.370459,-1.540349 -0.43058,-0.547391 -0.516162,-0.916355 -0.383989,-1.655453 0.09354,-0.523089 0.318539,-1.129665 0.499991,-1.347946 0.680587,-0.818728 1.295865,-3.951643 0.861393,-4.386114 -0.09431,-0.09432 -0.414234,0.227696 -0.710935,0.71558 -0.450181,0.740264 -0.769983,0.931289 -1.932485,1.154319 -1.043131,0.200127 -1.458638,0.416789 -1.654212,0.862569 -0.173596,0.395684 -0.489712,0.595313 -0.942687,0.595313 -1.301509,0 -3.071138,2.746248 -2.223132,3.450029 0.274905,0.22815 0.330523,0.693475 0.215402,1.802204 -0.153159,1.475097 -0.144737,1.498547 0.6442,1.79329 0.439666,0.164256 1.078129,0.245888 1.41881,0.181409 0.453532,-0.08584 0.864539,0.136287 1.534694,0.829418 0.503401,0.520663 1.028454,0.908934 1.166781,0.862825 0.138326,-0.04611 0.464963,-0.494207 0.725855,-0.995775 z m -2.146453,-4.880692 c 0,-0.411575 0.149931,-0.661458 0.396875,-0.661458 0.246943,0 0.396875,0.249883 0.396875,0.661458 0,0.411575 -0.149932,0.661458 -0.396875,0.661458 -0.246944,0 -0.396875,-0.249883 -0.396875,-0.661458 z M 44.072025,89.0375 c 0,-0.145521 0.119062,-0.264584 0.264583,-0.264584 0.145521,0 0.264584,0.119063 0.264584,0.264584 0,0.14552 -0.119063,0.264583 -0.264584,0.264583 -0.145521,0 -0.264583,-0.119063 -0.264583,-0.264583 z m -3.808897,6.68624 c -0.268954,-0.268952 -0.490868,0.135966 -0.270198,0.493019 0.166696,0.269721 0.229018,0.26993 0.318638,0.0011 0.06128,-0.18383 0.03948,-0.406167 -0.04844,-0.494088 z m 10.323502,0.381098 c 0.09646,-0.09646 0.02882,-0.351978 -0.150305,-0.567815 -0.200921,-0.242096 -0.257992,-0.700659 -0.148973,-1.19702 0.106042,-0.482806 0.06963,-0.804587 -0.09106,-0.804587 -0.291926,0 -0.450324,0.419828 -0.707649,1.875591 -0.149239,0.844289 -0.107405,0.9451 0.377377,0.909384 0.299874,-0.02209 0.624147,-0.119092 0.72061,-0.215553 z M 40.506471,93.585832 c -0.235575,-0.235571 -0.660962,0.50705 -0.653135,1.140209 0.0054,0.436332 0.07794,0.397415 0.413531,-0.221829 0.223843,-0.413047 0.331663,-0.826318 0.239604,-0.91838 z m 11.646225,-4.036769 c 0.284763,-0.460757 -0.03956,-0.558334 -0.402447,-0.121082 -0.20869,0.251456 -0.228764,0.403268 -0.05332,0.403268 0.15475,0 0.359844,-0.126984 0.455766,-0.282186 z m 3.179471,-1.545058 c -0.08149,-0.131859 -0.386175,-0.177504 -0.677074,-0.101433 -0.728014,0.19038 -0.662524,0.341178 0.148172,0.341178 0.372391,0 0.610397,-0.107885 0.528902,-0.239745 z M 34.810073,87.715404 c 0.316073,-0.169156 0.588188,-0.762281 0.758665,-1.653645 0.462894,-2.420312 0.605536,-3.903426 0.375422,-3.903426 -0.122534,0 -0.357612,-0.357187 -0.522396,-0.79375 -0.196812,-0.521415 -0.483139,-0.79375 -0.834532,-0.79375 -0.960055,0 -1.896806,0.506596 -2.145298,1.160179 -0.133935,0.352276 -0.355793,0.709891 -0.493017,0.7947 -0.352172,0.217655 0.941565,4.715569 1.473451,5.122725 0.522114,0.399675 0.74586,0.410473 1.387705,0.06697 z m 1.853619,-11.642487 c 0,-0.145521 -0.0525,-0.264584 -0.116677,-0.264584 -0.06417,0 -0.190261,0.119063 -0.280198,0.264584 -0.08994,0.145521 -0.03743,0.264583 0.116676,0.264583 0.154109,0 0.280199,-0.119062 0.280199,-0.264583 z m 4.614632,-6.226123 c 0.649854,-0.491524 0.805418,-0.486863 1.332193,0.03991 0.542398,0.542399 0.657341,0.422117 0.479808,-0.502099 -0.109921,-0.572246 -0.250867,-0.700384 -0.635952,-0.578163 -0.356952,0.113293 -0.578993,-0.02791 -0.797295,-0.507031 -0.420283,-0.922426 -0.825977,-1.003738 -1.666013,-0.333918 -0.583801,0.465507 -0.688362,0.712075 -0.5447,1.284468 0.150964,0.601493 0.441875,0.837693 1.186077,0.963013 0.07276,0.01225 0.363407,-0.15253 0.645882,-0.366183 z m 1.999951,-3.56346 c 0,-0.436563 -0.109326,-0.79375 -0.242943,-0.79375 -0.13362,0 -0.415912,-0.06637 -0.627317,-0.147498 -0.460094,-0.176554 -0.7939,0.547481 -0.573119,1.243105 0.09581,0.301878 0.404752,0.491893 0.799751,0.491893 0.538752,0 0.643628,-0.129336 0.643628,-0.79375 z m -4.668113,34.260176 c -0.216211,-0.563442 0.44106,-1.337322 0.738102,-0.869055 0.355848,0.560965 0.25577,1.269295 -0.179335,1.269295 -0.222848,0 -0.474293,-0.18011 -0.558767,-0.40024 z M 32.098199,64.017613 c -0.640557,-0.849205 -0.601506,-0.909279 0.59107,-0.909279 1.020502,0 1.043657,0.01976 0.757912,0.646903 -0.410066,0.899997 -0.809432,0.977674 -1.348982,0.262376 z"
         id="path836"
         inkscape:connector-curvature="0" />
      <path
         style="fill:#e49135;stroke-width:0.26458332"
         d="m 32.776062,131.16198 c -0.173665,-0.11041 -0.464791,-0.75798 -0.646947,-1.43904 l -0.331193,-1.23829 1.102984,-1.30807 c 1.758737,-2.08576 2.223577,-3.05657 2.376656,-4.96361 l 0.13907,-1.73252 -0.763578,0.0874 c -0.524314,0.06 -0.872347,0.31537 -1.110699,0.81498 -0.561451,1.17686 -1.111997,0.76546 -1.111997,-0.83097 0,-1.32128 0.840548,-1.81507 3.343121,-1.96395 0.512237,-0.0305 1.02508,-0.29055 1.340645,-0.67988 0.647805,-0.79924 1.168722,-0.55958 2.615241,1.20322 1.313736,1.60098 2.030911,3.16897 1.78348,3.89929 -0.103436,0.30531 -0.157763,0.76346 -0.120729,1.01812 0.07066,0.48584 -0.172323,0.57027 -0.870326,0.30243 -0.241654,-0.0927 -0.418515,-0.46899 -0.418515,-0.89036 0,-0.82418 -0.902305,-2.12405 -1.474412,-2.12405 -0.207719,0 -0.377671,0.23359 -0.377671,0.51907 0,0.73119 1.749615,4.33327 2.383335,4.90678 0.289896,0.26235 0.527081,0.73775 0.527081,1.05645 0,0.31869 0.238125,0.79494 0.529167,1.05833 0.709089,0.64172 0.669361,1.19062 -0.08617,1.19062 -0.338434,0 -0.894969,0.29766 -1.236745,0.66146 -0.599409,0.63805 -0.7392,0.66132 -3.948724,0.65741 -1.830025,-0.002 -3.469407,-0.0944 -3.643072,-0.2048 z m 16.587629,-11.56511 c 0,-0.21828 0.119063,-0.39687 0.264584,-0.39687 0.145521,0 0.264583,0.17859 0.264583,0.39687 0,0.21828 -0.119062,0.39688 -0.264583,0.39688 -0.145521,0 -0.264584,-0.1786 -0.264584,-0.39688 z m 0.79375,-1.04271 c 0,-0.22687 0.119063,-0.4125 0.264584,-0.4125 0.145521,0 0.264583,0.11204 0.264583,0.24897 0,0.13693 -0.119062,0.32256 -0.264583,0.41249 -0.145521,0.0899 -0.264584,-0.0221 -0.264584,-0.24896 z m 1.322917,-1.47083 c 0,-0.14552 0.119063,-0.26458 0.264583,-0.26458 0.145521,0 0.264584,0.11906 0.264584,0.26458 0,0.14552 -0.119063,0.26458 -0.264584,0.26458 -0.14552,0 -0.264583,-0.11906 -0.264583,-0.26458 z m 3.100594,-1.54448 c 0.807416,-0.69136 0.836419,-0.77879 0.558612,-1.68397 -0.350366,-1.1416 -1.314527,-1.78808 -1.918806,-1.28657 -0.216866,0.17999 -0.513381,0.25365 -0.658921,0.1637 -0.488273,-0.30177 -0.0043,-0.86223 1.005938,-1.1649 0.550788,-0.16503 1.217864,-0.5392 1.482392,-0.83149 0.264525,-0.2923 0.80296,-0.53145 1.19652,-0.53145 0.695764,0 0.715904,0.0433 0.727747,1.56666 0.01019,1.31067 -0.10263,1.70928 -0.690428,2.43939 -1.146723,1.42436 -1.847821,2.08003 -2.211935,2.06861 -0.188516,-0.006 0.04048,-0.3389 0.508881,-0.73998 z m -5.176382,-0.15881 c 0.05028,-0.24273 0.210476,-0.43504 0.355996,-0.42735 0.392719,0.0207 0.32057,0.61267 -0.09141,0.75 -0.222546,0.0742 -0.321731,-0.0468 -0.264583,-0.32265 z m 5.537768,-5.93739 c 0.0123,-0.0905 0.488567,-0.56529 1.058334,-1.05511 0.970446,-0.83429 1.37701,-0.71984 0.782436,0.22025 -0.140674,0.22242 -0.146788,0.50682 -0.01434,0.66642 0.154537,0.18621 -0.113366,0.28745 -0.808885,0.30569 -0.571973,0.015 -1.029874,-0.0468 -1.017555,-0.13725 z m -1.87448,-2.50477 c 0,-0.19573 0.238125,-0.57137 0.529167,-0.83476 0.35261,-0.3191 0.529166,-0.8149 0.529166,-1.48599 0,-0.82878 -0.192971,-1.19815 -1.089866,-2.08613 -1.055304,-1.04481 -1.074978,-1.09547 -0.620451,-1.59772 0.258178,-0.28528 0.689087,-0.5187 0.957575,-0.5187 0.268486,0 0.488159,-0.12488 0.488159,-0.27752 0,-0.402936 2.077445,-1.270695 2.670694,-1.115556 0.385119,0.100711 0.504306,0.371022 0.504306,1.143736 0,0.55653 -0.121005,1.08665 -0.268899,1.17805 -0.147894,0.0914 -0.203914,0.27134 -0.124489,0.39985 0.252619,0.40875 -1.232826,3.38235 -1.758272,3.51975 -0.30888,0.0808 -0.494173,0.3667 -0.494173,0.76255 0,0.69516 -0.442389,1.26831 -0.978959,1.26831 -0.189177,0 -0.343958,-0.16014 -0.343958,-0.35587 z m -39.402028,-2.4443 c 0.0127,-0.30823 0.07539,-0.37092 0.159853,-0.15986 0.07643,0.191 0.06703,0.4192 -0.02089,0.50712 -0.08792,0.0879 -0.150452,-0.0683 -0.138963,-0.34726 z m 3.052315,-1.36702 c 0.09508,-0.40018 0.333846,-0.91377 0.530595,-1.14132 0.243962,-0.28214 0.271606,-0.49984 0.08692,-0.68452 -0.175728,-0.17573 -0.183749,-0.49977 -0.02285,-0.92298 0.438278,-1.152756 0.304706,-2.588322 -0.269419,-2.895585 -0.284557,-0.152289 -0.649201,-0.23295 -0.81032,-0.179242 -0.29201,0.09734 -0.358019,0.2803 -0.644762,1.787141 -0.08324,0.437449 -0.297978,0.795362 -0.477189,0.795362 -0.552153,0 -1.187624,-0.913096 -1.206371,-1.73341 -0.0098,-0.429072 -0.08086,-1.958427 -0.157887,-3.398567 -0.106831,-1.997258 -0.05708,-2.67679 0.209737,-2.864414 0.274387,-0.19295 0.278497,-0.274907 0.01906,-0.380174 -0.248646,-0.100894 -0.330729,-1.411325 -0.330729,-5.280023 0,-5.581008 0.22423,-6.759817 1.376265,-7.235225 0.836439,-0.345172 1.677523,-1.085139 2.041661,-1.796207 0.167672,-0.327422 0.47124,-0.595313 0.674595,-0.595313 0.203355,0 0.445314,-0.238125 0.537687,-0.529166 0.09237,-0.291042 0.280917,-0.529167 0.418985,-0.529167 0.138069,0 0.447027,-0.411 0.686573,-0.913333 0.357793,-0.7503 0.374861,-0.986446 0.09561,-1.322917 -0.465125,-0.560441 -0.804297,-0.513938 -0.804297,0.110274 0,0.581543 -0.727931,1.067643 -1.598789,1.067643 -0.487128,0 -0.54884,0.105198 -0.402876,0.686766 0.215022,0.856714 -0.284468,1.573634 -0.798912,1.146684 -0.259754,-0.215578 -0.51954,-0.165619 -1.014914,0.195174 -0.366188,0.266705 -0.669538,0.574214 -0.674111,0.683355 -0.0046,0.109141 -0.127377,0.198437 -0.272898,0.198437 -0.168741,0 -0.263274,-2.180404 -0.26097,-6.01927 0.0036,-5.924364 0.110537,-7.334098 0.536585,-7.070786 0.1185,0.07324 0.2875,-0.09384 0.375557,-0.371284 0.08806,-0.277443 0.424051,-0.575202 0.746654,-0.661687 0.8625,-0.231225 15.538063,-0.199109 15.520868,0.03396 -0.0081,0.109141 -0.380648,0.488146 -0.827993,0.842234 -0.787125,0.623034 -0.825081,0.627759 -1.176977,0.146512 -0.815734,-1.115582 -1.136173,0.71607 -0.48229,2.756794 0.134721,0.420453 0.110174,0.578695 -0.07228,0.465934 -0.357392,-0.22088 -0.773306,0.290382 -1.012938,1.245152 -0.117581,0.46848 -0.630241,1.067571 -1.344188,1.570806 -0.634763,0.447423 -1.154114,0.891185 -1.154114,0.986139 0,0.09495 0.235285,0.385574 0.522856,0.645823 0.503342,0.455517 0.573262,0.451494 1.873342,-0.107785 1.263405,-0.543502 1.392545,-0.553406 2.002746,-0.153587 0.358743,0.235058 0.865558,0.359679 1.126256,0.276937 0.295567,-0.09381 0.746949,0.102524 1.199091,0.521555 0.650631,0.602984 0.865639,0.653891 2.093631,0.495707 0.752695,-0.09696 1.666192,-0.294378 2.029994,-0.438709 1.089562,-0.432263 4.17065,-0.453574 4.521129,-0.03127 0.475477,0.572915 2.32378,0.991298 2.764271,0.625723 0.475912,-0.394971 1.975017,-0.07188 1.975017,0.425664 0,0.206719 0.200697,0.375852 0.445992,0.375852 0.245298,0 0.989439,0.454558 1.653646,1.010128 0.66421,0.55557 1.421389,1.089678 1.68262,1.186906 0.261234,0.09723 0.648187,0.591346 0.859896,1.09804 0.460923,1.103139 0.50586,4.207869 0.07907,5.46284 -0.390578,1.148491 -1.738744,2.883752 -2.240454,2.883752 -0.612119,0 -2.491605,1.043294 -2.657285,1.475047 -0.09619,0.250663 -0.337325,0.333584 -0.666374,0.229148 -0.380318,-0.120708 -0.751105,0.10289 -1.412862,0.852011 -0.493472,0.558618 -0.902176,1.148441 -0.908232,1.310717 -0.0061,0.162277 -0.24914,0.597775 -0.540182,0.967774 -0.667401,0.84846 -0.662154,0.930444 0.06615,1.03388 0.979765,0.13915 0.754785,1.063628 -0.390028,1.602677 -1.541246,0.725718 -1.916499,1.493472 -1.525858,3.121848 0.17703,0.737941 0.278689,1.365048 0.22591,1.393576 -0.05278,0.02853 -0.331581,0.182322 -0.61956,0.34177 -0.287979,0.159449 -0.883291,0.992886 -1.322917,1.852083 -0.972089,1.899846 -1.596229,2.100396 -2.429962,0.780806 -0.31477,-0.4982 -0.650216,-1.151286 -0.745433,-1.451292 -0.145411,-0.458147 -0.392623,-0.545724 -1.544357,-0.547092 -0.759226,-7.93e-4 -1.725497,-0.193204 -2.164982,-0.430863 -0.436563,-0.23608 -1.315798,-0.532403 -1.953855,-0.658492 -0.638058,-0.126093 -1.700268,-0.587047 -2.360466,-1.024345 -1.475489,-0.977323 -1.696725,-0.988841 -1.590232,-0.08277 0.06387,0.543476 0.276961,0.762027 0.898989,0.922044 0.448399,0.115351 1.024238,0.440635 1.279642,0.722852 0.45328,0.50087 0.437673,0.511136 -0.653357,0.429763 -0.956885,-0.07137 -1.293326,-0.275071 -2.337975,-1.415579 -0.671135,-0.732718 -1.49266,-1.692746 -1.825611,-2.133393 -0.771002,-1.020392 -1.273909,-0.825037 -1.460674,0.567399 -0.177361,1.322321 0.03407,1.773232 0.519917,1.108799 0.279038,-0.381608 0.4275,-0.418861 0.676584,-0.169777 0.249084,0.249084 0.219838,0.487148 -0.133283,1.084934 -0.248813,0.421209 -0.452387,1.060305 -0.452387,1.420217 0,0.35991 -0.178594,0.802603 -0.396875,0.983761 -0.218282,0.181154 -0.396875,0.529464 -0.396875,0.774024 0,0.24456 -0.367291,0.94408 -0.816203,1.55451 -0.650269,0.88423 -0.936655,1.07963 -1.408695,0.96115 -0.366328,-0.0919 -0.723611,0.009 -0.935986,0.26518 -0.530657,0.63941 -0.836222,0.4908 -0.64508,-0.31372 z m -1.975182,-4.696353 c 0,-0.138244 -0.127992,-0.294018 -0.284427,-0.346162 -0.156435,-0.05215 -0.284427,0.103627 -0.284427,0.346162 0,0.242536 0.127992,0.398309 0.284427,0.346163 0.156435,-0.05214 0.284427,-0.207918 0.284427,-0.346163 z m 0.621771,-7.011458 c 0.08994,-0.14552 -0.0221,-0.264583 -0.248969,-0.264583 -0.226869,0 -0.41249,0.119063 -0.41249,0.264583 0,0.145521 0.112036,0.264584 0.248969,0.264584 0.136932,0 0.322553,-0.119063 0.41249,-0.264584 z M 35.163071,87.91302 c 0.543003,-0.500743 0.691392,-0.993527 0.934108,-3.102078 0.237666,-2.064684 0.224951,-2.542361 -0.0721,-2.7086 -0.198361,-0.111009 -0.435745,-0.50101 -0.52752,-0.866671 -0.130781,-0.521075 -0.334721,-0.664838 -0.943123,-0.664838 -1.124468,0 -2.124076,0.529705 -2.124076,1.125573 0,0.291309 -0.23097,0.571868 -0.536586,0.651788 -0.342702,0.08962 -0.490512,0.295772 -0.409073,0.570542 0.07013,0.236622 0.372703,1.382722 0.672379,2.546889 0.740751,2.877632 1.696038,3.6554 3.005993,2.447395 z M 30.782225,76.552474 c -0.163532,-0.490596 -0.733117,-0.571966 -0.733117,-0.104731 0,0.230408 0.188516,0.418924 0.418924,0.418924 0.230408,0 0.371795,-0.141387 0.314193,-0.314193 z m 5.815285,-0.633933 c -0.252137,-0.252137 -0.757632,0.156262 -0.56973,0.460295 0.111686,0.180711 0.25968,0.176146 0.449698,-0.01387 0.155775,-0.155775 0.20979,-0.356665 0.120032,-0.446423 z M 14.438692,102.68518 c 0,-0.20638 -0.07227,-0.56357 -0.160599,-0.79375 -0.121136,-0.31568 0.0089,-0.41851 0.529167,-0.41851 0.751519,0 0.953432,0.68883 0.372265,1.27 -0.425549,0.42554 -0.740833,0.40097 -0.740833,-0.0577 z m -0.79375,-1.88934 c 0,-0.51791 0.09921,-0.880339 0.220469,-0.805398 0.20855,0.128888 0.09906,1.747058 -0.118207,1.747058 -0.05624,0 -0.102262,-0.42375 -0.102262,-0.94166 z m 14.2875,0.23284 c 0,-0.49707 0.66813,-1.934789 0.868143,-1.868119 0.278329,0.09278 0.276438,0.109997 -0.130415,1.187879 -0.286303,0.7585 -0.737728,1.17475 -0.737728,0.68024 z m 20.549306,-1.319654 c -0.381958,-0.381955 -0.145341,-0.882131 0.418923,-0.885555 1.232445,-0.0075 1.785937,-0.304033 1.785937,-0.956879 0,-0.348805 0.135499,-0.851157 0.301107,-1.11634 0.211645,-0.338895 0.222064,-0.711232 0.03507,-1.253181 -0.192416,-0.557662 -0.173416,-0.954077 0.06865,-1.432488 0.184078,-0.363802 0.484581,-1.19724 0.667787,-1.852084 0.419261,-1.498594 1.315082,-2.906246 1.851025,-2.908608 0.225557,-10e-4 0.540724,-0.132428 0.70037,-0.292074 0.159647,-0.159646 0.838415,-0.308475 1.508372,-0.330729 1.200179,-0.03987 1.218101,-0.02812 1.217858,0.79841 -2.09e-4,0.716871 -0.115686,0.864228 -0.793996,1.01321 -0.436562,0.09589 -0.79375,0.340413 -0.79375,0.543396 0,0.20298 0.357188,0.553765 0.79375,0.77952 0.722622,0.373682 0.79375,0.529934 0.79375,1.743668 0,1.145342 -0.107778,1.423892 -0.764871,1.9768 -0.420679,0.353978 -0.833292,0.916202 -0.916913,1.249383 -0.09981,0.397685 -0.496017,0.729121 -1.153359,0.964812 -0.550725,0.197463 -1.628706,0.758647 -2.395516,1.247076 -1.306523,0.832207 -2.869128,1.166737 -3.324201,0.711663 z m 4.321527,-3.144041 c 0,-0.574876 -0.754502,-1.971236 -1.065128,-1.971236 -0.369618,0 -0.320135,0.380471 0.18809,1.446231 0.466497,0.978255 0.877038,1.224008 0.877038,0.525005 z M 41.161608,96.428439 c 0,-0.44613 -0.09996,-1.011677 -0.222131,-1.256771 -0.136482,-0.273804 -0.08698,-0.70067 0.128392,-1.107085 l 0.350523,-0.661459 0.0039,0.722564 c 0.003,0.548471 0.163269,0.762561 0.665358,0.888579 0.805104,0.202068 0.835293,0.610042 0.113089,1.528175 -0.720421,0.915882 -1.03912,0.880917 -1.03912,-0.114003 z m 15.493227,0.306411 c -0.08163,-0.13208 -0.03667,-0.519033 0.0999,-0.859896 0.232273,-0.579681 0.249413,-0.564155 0.265097,0.240149 0.01696,0.869466 -0.09411,1.058056 -0.365001,0.619747 z m -6.497394,-4.683447 c 0,-0.292333 -0.178593,-0.76263 -0.396875,-1.045105 -0.374292,-0.484367 -0.417181,-0.487478 -0.753766,-0.05468 -0.445045,0.572265 -0.701442,0.340045 -0.701442,-0.635299 0,-0.581409 0.122762,-0.749652 0.546997,-0.749652 0.430482,0 0.510442,-0.115174 0.375383,-0.540708 -0.179893,-0.566786 0.329827,-3.06699 0.736745,-3.613782 0.130173,-0.174918 0.161007,-0.556444 0.06853,-0.847836 -0.09701,-0.305662 0.01265,-0.805741 0.25921,-1.18204 0.235047,-0.35873 0.390178,-0.853503 0.34473,-1.099494 -0.05241,-0.283665 0.244452,-0.624735 0.811615,-0.932484 0.840147,-0.455874 1.399913,-1.132403 1.770793,-2.140165 0.227176,-0.617284 1.434108,-0.785197 2.647601,-0.368346 l 1.037359,0.356347 0.07272,4.261296 0.07271,4.261296 -1.437111,-0.168905 c -1.294056,-0.152091 -1.583873,-0.08494 -2.911396,0.674594 -1.769107,1.012181 -1.875422,1.158124 -1.887543,2.591103 -0.0052,0.61522 -0.15499,1.26411 -0.332859,1.441979 -0.254804,0.254804 -0.323395,0.210664 -0.323395,-0.208118 z m 0.585907,-13.769992 c -0.492085,-1.603358 0.379442,-2.540755 1.357461,-1.460057 0.547917,0.605441 0.549978,0.951185 0.01058,1.774413 -0.597064,0.911237 -1.021853,0.813627 -1.368039,-0.314356 z m 3.611764,-3.709553 c -0.887392,-1.724368 -1.382983,-1.831506 -1.145466,-0.24763 0.237466,1.583534 -0.272336,1.637046 -1.535613,0.161189 -0.498242,-0.582083 -1.045051,-1.058333 -1.215133,-1.058333 -0.543968,0 -1.360464,-1.621033 -1.080233,-2.144648 0.137284,-0.256519 0.249608,-0.734625 0.249608,-1.06246 0,-0.586854 -0.0118,-0.584744 -0.764728,0.136593 -0.48247,0.462236 -0.83003,0.626991 -0.941655,0.446376 -0.09737,-0.157555 -0.946144,-0.286278 -1.887656,-0.286278 -1.586601,0 -1.729185,-0.04855 -1.965156,-0.669202 -0.139935,-0.368061 -0.245502,-0.933608 -0.23459,-1.256771 0.0109,-0.323162 -0.06582,-1.034053 -0.170513,-1.579756 -0.254297,-1.325464 0.374898,-1.347228 1.36643,-0.04726 0.508105,0.666161 0.869677,0.905971 1.225629,0.812887 0.277693,-0.07262 1.001223,0.0094 1.607841,0.18232 1.16894,0.333165 2.558148,0.289863 2.558148,-0.07974 0,-0.302968 -1.501402,-0.802059 -2.412812,-0.802059 -0.517718,0 -0.921102,-0.23637 -1.316834,-0.771626 -0.313767,-0.424394 -0.809308,-0.834078 -1.101201,-0.91041 -0.382805,-0.100106 -0.491006,-0.290618 -0.388245,-0.683583 0.188773,-0.721865 -0.429397,-0.717141 -1.155369,0.0088 -0.381762,0.381762 -0.730843,0.499708 -1.124479,0.379936 -1.249794,-0.380273 -1.361541,-0.314399 -1.445961,0.852373 -0.06156,0.850794 -0.191008,1.124479 -0.531871,1.124479 -0.774687,0 -1.900311,1.264001 -1.900311,2.133923 0,0.611655 -0.158771,0.849955 -0.704543,1.057457 -1.043812,0.396857 -1.353145,-0.05533 -0.812881,-1.188278 l 0.435195,-0.912612 -0.977972,-0.784556 c -0.942105,-0.755783 -0.960995,-0.803316 -0.515077,-1.29605 0.441726,-0.488102 0.439372,-0.532781 -0.05149,-0.977001 -0.282909,-0.256029 -0.636895,-0.816953 -0.786634,-1.246498 l -0.272255,-0.78099 1.512097,0.07907 c 1.010847,0.05286 1.491222,0.185552 1.449125,0.400281 -0.03639,0.185623 0.103213,0.257436 0.33073,0.17013 0.216535,-0.08309 0.393701,-0.257401 0.393701,-0.387353 0,-0.129952 1.607343,-0.236276 3.571875,-0.236276 2.20486,0 3.571875,0.10126 3.571875,0.264583 0,0.145521 0.178593,0.264584 0.396874,0.264584 0.218282,0 0.396875,-0.119063 0.396875,-0.264584 0,-0.164629 1.499307,-0.264583 3.96875,-0.264583 2.383716,0 3.96875,0.102353 3.96875,0.256279 0,0.140954 0.17408,0.189479 0.386842,0.107835 0.222277,-0.0853 0.672502,0.159785 1.058334,0.576105 l 0.671491,0.724551 v 5.200115 c 0,5.577372 -0.05919,5.835114 -1.340093,5.835114 -0.572376,0 -0.824863,-0.232734 -1.341403,-1.236475 z m -16.153704,-8.21934 c -0.04872,-0.25299 -0.305457,-0.501748 -0.570522,-0.552795 -0.412741,-0.07949 -0.43946,-0.01344 -0.18609,0.459983 0.358146,0.669202 0.879941,0.73321 0.756612,0.09281 z m 2.9602,-0.185861 c 0,-0.209693 -0.119062,-0.454845 -0.264583,-0.544781 -0.145521,-0.08994 -0.264583,0.08163 -0.264583,0.38126 0,0.299629 0.119062,0.544781 0.264583,0.544781 0.145521,0 0.264583,-0.171567 0.264583,-0.38126 z m -9.133242,-2.645386 c -0.495107,-0.374231 -0.468035,-0.396572 0.490187,-0.404522 0.696406,-0.0058 0.979728,0.09522 0.904116,0.322314 -0.16401,0.492584 -0.80164,0.530178 -1.394303,0.08221 z"
         id="path834"
         inkscape:connector-curvature="0" />
      <path
         style="fill:#c0552e;stroke-width:0.26458332"
         d="m 32.776062,131.16198 c -0.173665,-0.11041 -0.464791,-0.75798 -0.646947,-1.43904 l -0.331193,-1.23829 1.102984,-1.30807 c 1.758737,-2.08576 2.223577,-3.05657 2.376656,-4.96361 l 0.13907,-1.73252 -0.763578,0.0874 c -0.524314,0.06 -0.872347,0.31537 -1.110699,0.81498 -0.561451,1.17686 -1.111997,0.76546 -1.111997,-0.83097 0,-1.32128 0.840548,-1.81507 3.343121,-1.96395 0.512237,-0.0305 1.02508,-0.29055 1.340645,-0.67988 0.647805,-0.79924 1.168722,-0.55958 2.615241,1.20322 1.313736,1.60098 2.030911,3.16897 1.78348,3.89929 -0.103436,0.30531 -0.157763,0.76346 -0.120729,1.01812 0.07066,0.48584 -0.172323,0.57027 -0.870326,0.30243 -0.241654,-0.0927 -0.418515,-0.46899 -0.418515,-0.89036 0,-0.82418 -0.902305,-2.12405 -1.474412,-2.12405 -0.207719,0 -0.377671,0.23359 -0.377671,0.51907 0,0.73119 1.749615,4.33327 2.383335,4.90678 0.289896,0.26235 0.527081,0.73775 0.527081,1.05645 0,0.31869 0.238125,0.79494 0.529167,1.05833 0.709089,0.64172 0.669361,1.19062 -0.08617,1.19062 -0.338434,0 -0.894969,0.29766 -1.236745,0.66146 -0.599409,0.63805 -0.7392,0.66132 -3.948724,0.65741 -1.830025,-0.002 -3.469407,-0.0944 -3.643072,-0.2048 z M 49.40457,115.38004 c 0.05028,-0.24273 0.210476,-0.43504 0.355996,-0.42735 0.392719,0.0207 0.32057,0.61267 -0.09141,0.75 -0.222546,0.0742 -0.321731,-0.0468 -0.264583,-0.32265 z m 5.778674,-1.39212 c -0.144642,-0.40758 -0.382878,-0.91964 -0.529413,-1.13792 -0.574807,-0.85625 -0.572746,-1.10851 0.01418,-1.73326 0.382932,-0.40761 0.902462,-0.64799 1.400487,-0.64799 0.435449,0 0.716542,0.0752 0.624647,0.16708 -0.0919,0.0919 -0.04802,0.38955 0.0975,0.66146 0.18007,0.33646 0.176096,0.49438 -0.01243,0.49438 -0.169304,0 -0.22107,0.3858 -0.133133,0.99218 0.122894,0.84742 0.04593,1.06171 -0.527479,1.46865 -0.667192,0.47349 -0.673004,0.47185 -0.934352,-0.26458 z m -2.750375,-1.35968 c -0.08411,-0.1361 0.01376,-0.38579 0.217471,-0.55486 0.219051,-0.1818 0.432898,-0.2063 0.523341,-0.06 0.08411,0.1361 -0.01376,0.38579 -0.217472,0.55486 -0.219051,0.1818 -0.432898,0.2063 -0.52334,0.06 z m 2.487072,-9.30324 c 0,-0.14552 0.12609,-0.26458 0.280199,-0.26458 0.15411,0 0.206614,0.11906 0.116676,0.26458 -0.08994,0.14552 -0.216027,0.26458 -0.280199,0.26458 -0.06417,0 -0.116676,-0.11906 -0.116676,-0.26458 z m -37.570832,-0.64783 c 0,-0.0653 0.290701,-0.43233 0.646003,-0.81571 0.355301,-0.38337 0.682723,-1.00672 0.727604,-1.38521 0.05954,-0.502085 0.286487,-0.742541 0.839312,-0.889255 0.732903,-0.194501 0.752422,-0.174638 0.596153,0.606705 -0.218292,1.09146 -1.476349,2.55937 -2.21376,2.58303 -0.327422,0.0105 -0.595312,-0.0343 -0.595312,-0.0996 z m 17.866538,-2.05807 c -0.287101,-0.47629 -0.589739,-1.104101 -0.672529,-1.395143 -0.124551,-0.437848 -0.448468,-0.554976 -1.877031,-0.678727 -0.966201,-0.0837 -2.006756,-0.345856 -2.362904,-0.595313 -0.35002,-0.245163 -0.960026,-0.445751 -1.355569,-0.445751 -0.439662,0 -1.563279,-0.578094 -2.891063,-1.487435 l -2.171895,-1.487432 0.165195,0.825974 c 0.09124,0.456181 0.05387,0.825976 -0.08347,0.825976 -0.332485,0 -0.796444,-0.897493 -0.796444,-1.540661 0,-0.381465 -0.242813,-0.562665 -0.925638,-0.690766 -1.042502,-0.195574 -2.213743,-0.87367 -4.043962,-2.341271 -1.544942,-1.238848 -2.158455,-1.406663 -3.190847,-0.872792 -0.44501,0.230124 -0.934083,0.418407 -1.08683,0.418407 -0.1842,0 -0.277723,-1.699231 -0.277723,-5.045982 0,-4.020406 0.07682,-5.122804 0.377976,-5.423958 0.512127,-0.512127 1.128303,-0.475816 1.443167,0.08505 0.296818,0.528716 0.396601,0.344857 0.672645,-1.23941 0.171931,-0.986741 0.821696,-1.869444 1.376113,-1.869444 0.191566,0 0.450918,0.386953 0.576336,0.859895 l 0.228034,0.859896 0.683299,-1.322916 c 0.375814,-0.727604 1.199337,-1.813716 1.830052,-2.413581 1.309487,-1.245439 3.883851,-3.010377 4.390977,-3.010377 0.187479,0 1.015798,-0.237218 1.840708,-0.527151 1.497926,-0.526478 1.500553,-0.526478 2.060964,0 0.308619,0.289933 0.747271,0.527151 0.974782,0.527151 0.227511,0 0.85495,0.184384 1.394309,0.409742 1.067799,0.446155 2.772483,0.330422 4.298213,-0.291811 0.552152,-0.225182 1.152964,-0.272787 1.719792,-0.136268 2.656733,0.639866 3.760128,0.87566 5.024855,1.073807 0.771414,0.120858 1.844669,0.386259 2.385015,0.589781 1.480822,0.557753 3.893563,2.313456 4.324545,3.146885 0.559703,1.082345 0.491535,4.337089 -0.118522,5.658905 -0.71832,1.556389 -1.482569,2.114353 -4.130135,3.01533 -1.750682,0.595764 -2.556407,1.022598 -3.042709,1.611874 -0.363802,0.440838 -0.810286,0.800451 -0.992187,0.799139 -0.181901,-0.0013 -0.330729,0.125198 -0.330729,0.281133 0,0.155935 -0.267891,0.248906 -0.595313,0.206601 -1.299675,-0.167924 -1.668293,0.887624 -0.727604,2.083517 0.67552,0.858785 0.666669,1.3964 -0.04279,2.598838 -0.529524,0.897475 -0.546508,1.068671 -0.228949,2.30772 0.315443,1.230791 0.302935,1.367594 -0.155651,1.702474 -0.274261,0.200279 -0.855843,1.103376 -1.292406,2.006883 -0.953758,1.973891 -1.590586,2.220991 -2.374086,0.921211 z m -0.15755,-12.573788 c 0.704996,-0.65428 0.813219,-0.979203 1.073905,-3.22425 0.244484,-2.10552 0.230567,-2.52985 -0.08884,-2.7086 -0.208307,-0.116574 -0.453829,-0.51113 -0.545604,-0.876791 -0.130781,-0.521075 -0.334721,-0.664838 -0.943123,-0.664838 -1.124468,0 -2.124076,0.529705 -2.124076,1.125573 0,0.284945 -0.22898,0.571347 -0.517016,0.64667 -0.571064,0.149337 -0.557367,0.423706 0.1691,3.387132 0.353467,1.441871 1.39558,3.042708 1.980743,3.042708 0.116,0 0.56371,-0.327422 0.994911,-0.727604 z m 5.235482,-2.497684 c 0.417539,-0.199505 0.772303,-0.607937 0.820285,-0.944377 0.09425,-0.660824 0.754835,-0.811299 0.888241,-0.202332 0.132448,0.604601 1.266857,-0.07226 1.991249,-1.188107 0.329268,-0.507203 0.727837,-1.074597 0.885706,-1.260876 0.37067,-0.437377 0.228819,-1.140719 -0.277868,-1.377767 -0.218282,-0.10212 -0.659932,-0.321231 -0.981446,-0.486913 -1.481526,-0.763458 -3.504575,0.510561 -4.059893,2.556725 -0.184217,0.678779 -0.732621,2.034843 -1.218676,3.013476 -0.486054,0.978633 -0.883735,1.882932 -0.883735,2.009554 0,0.126621 0.472589,-0.219343 1.050199,-0.768809 0.577609,-0.549467 1.381281,-1.157225 1.785938,-1.350574 z m -9.715304,1.227774 c 0,-0.07999 -0.192205,-0.517114 -0.427122,-0.971394 -0.364844,-0.70553 -0.462922,-0.761994 -0.672644,-0.387242 -0.301317,0.538424 0.155931,1.504067 0.7122,1.504067 0.213161,0 0.387566,-0.06544 0.387566,-0.145431 z m -2.910417,-4.484777 c -0.181157,-0.218281 -0.430124,-0.396875 -0.553259,-0.396875 -0.123136,0 -0.15535,0.178594 -0.07159,0.396875 0.08376,0.218281 0.332729,0.396875 0.553259,0.396875 0.326414,0 0.339724,-0.07379 0.07159,-0.396875 z m 3.114367,-5.738151 c -0.163532,-0.490596 -0.733117,-0.571966 -0.733117,-0.104731 0,0.230408 0.188516,0.418924 0.418924,0.418924 0.230408,0 0.371795,-0.141387 0.314193,-0.314193 z m 5.815285,-0.633933 c -0.252137,-0.252137 -0.757632,0.156262 -0.56973,0.460295 0.111686,0.180711 0.25968,0.176146 0.449698,-0.01387 0.155775,-0.155775 0.20979,-0.356665 0.120032,-0.446423 z m -8.665068,25.110139 c 0,-0.49707 0.66813,-1.934789 0.868143,-1.868119 0.278329,0.09278 0.276438,0.109997 -0.130415,1.187879 -0.286303,0.7585 -0.737728,1.17475 -0.737728,0.68024 z m 26.310574,-7.082861 c -0.338895,-0.517218 -0.580708,-0.621898 -1.166141,-0.504812 -0.831035,0.166209 -1.270849,-0.267628 -0.82092,-0.80976 0.433462,-0.52229 2.600899,-0.487719 3.34555,0.05336 0.800886,0.581938 0.794814,0.637839 -0.144793,1.332518 l -0.786143,0.581221 z M 13.644942,92.889573 c 0,-0.226869 0.119062,-0.41249 0.264583,-0.41249 0.145521,0 0.264584,0.112035 0.264584,0.248967 0,0.136933 -0.119063,0.322554 -0.264584,0.412491 -0.145521,0.08994 -0.264583,-0.02209 -0.264583,-0.248968 z m 37.834924,-7.287828 c 0.09307,-0.725499 0.24847,-1.398336 0.345329,-1.495193 0.09686,-0.09686 -0.0082,-0.310852 -0.233402,-0.475544 -0.357704,-0.261558 -0.305877,-0.429841 0.409688,-1.33026 0.450557,-0.566953 1.060919,-1.200133 1.35636,-1.407069 0.295442,-0.206935 0.645769,-0.661887 0.778502,-1.011004 0.182865,-0.480969 0.439444,-0.634758 1.059027,-0.634758 1.759421,0 1.841238,0.17677 1.841238,3.978059 0,1.88665 -0.10061,3.430274 -0.223576,3.430274 -0.122967,0 -0.439076,-0.238125 -0.702466,-0.529167 -0.628247,-0.694205 -1.166992,-0.667524 -2.671238,0.132292 -1.904683,1.012729 -2.162641,0.926154 -1.959462,-0.65763 z M 51.07527,77.64713 c -0.251409,-0.406793 0.09296,-0.669255 0.432552,-0.329666 0.190018,0.190018 0.194582,0.338012 0.01386,0.449697 -0.148145,0.09156 -0.349036,0.03754 -0.446424,-0.120031 z M 13.653357,75.742188 c 0.0046,-0.327422 0.199239,-0.833438 0.43247,-1.12448 0.372662,-0.465034 0.403708,-0.470427 0.256168,-0.04451 -0.09234,0.266564 -0.167886,0.772579 -0.167886,1.124479 0,0.351901 -0.119063,0.639819 -0.264584,0.639819 -0.145521,0 -0.260796,-0.267891 -0.256168,-0.595312 z M 56.019028,75.036743 C 55.597849,74.928807 55.284545,74.546719 55.044372,73.8481 54.727018,72.924983 54.400752,72.522185 53.796005,72.306905 53.687163,72.26816 53.561192,71.616245 53.516068,70.858206 53.431732,69.441495 52.820272,68.4 52.072858,68.4 c -0.2111,0 -0.737605,-0.29769 -1.170011,-0.661535 -0.432403,-0.363845 -1.104435,-0.72542 -1.493401,-0.8035 -2.171023,-0.435807 -2.661177,-1.040228 -2.319695,-2.860481 l 0.181253,-0.96615 h 3.443208 c 1.893766,0 3.385548,0.0933 3.31507,0.207331 -0.07047,0.114032 0.299273,0.193149 0.821661,0.175816 1.421805,-0.04718 2.005267,0.679961 2.123594,2.646519 0.06232,1.035799 0.0097,1.475678 -0.149172,1.246664 -0.471668,-0.679959 -1.406853,-0.239564 -1.774727,0.835749 -0.314648,0.919728 -0.294352,1.090991 0.224731,1.896328 0.313839,0.48691 0.838505,1.011656 1.165927,1.166103 0.526978,0.248579 0.595312,0.477076 0.595312,1.990661 0,0.940417 -0.0893,1.757651 -0.198437,1.816077 -0.109141,0.05843 -0.477756,0.03465 -0.819143,-0.05284 z m -3.859712,-0.727715 c -1.271556,-1.456516 -2.001875,-2.439151 -2.001875,-2.693502 0,-0.15757 0.234083,-0.411767 0.520182,-0.564883 0.286096,-0.153115 0.647874,-0.752617 0.803947,-1.332225 0.309319,-1.148721 0.536186,-1.272389 1.170514,-0.63806 0.481401,0.481401 0.478488,0.32167 0.0431,2.362351 -0.23122,1.083725 -0.258101,1.822682 -0.08471,2.32861 0.316997,0.92496 0.10623,1.176165 -0.451152,0.537709 z M 13.644942,71.38127 c 0,-0.410728 0.10699,-0.565126 0.306261,-0.44197 0.219733,0.135803 0.245572,0.0094 0.09145,-0.447405 -0.283536,-0.840393 -0.482364,-4.36444 -0.289581,-5.132548 0.08565,-0.341243 0.421988,-0.672793 0.771507,-0.760517 0.616281,-0.154676 0.880184,-0.937358 0.333033,-0.987703 -0.851265,-0.07833 1.281716,-0.453923 2.705545,-0.476419 1.269985,-0.02007 1.621734,0.05273 1.470565,0.304355 -0.15228,0.25347 -0.109572,0.260916 0.182823,0.03187 0.390299,-0.305732 5.011726,-0.518529 5.011726,-0.230769 0,0.6655 -0.88331,1.695522 -1.516678,1.768587 -1.172983,0.135314 -1.038035,0.870201 0.481994,2.624793 l 1.387833,1.601996 -0.771887,0.631046 c -0.865445,0.707533 -1.065405,0.766779 -1.301053,0.385493 -0.271167,-0.438756 -0.665616,-0.299441 -0.893068,0.315421 -0.481305,1.30109 -3.525962,1.426467 -3.286228,0.135325 0.118872,-0.640209 -0.710838,-1.338698 -1.300349,-1.094696 -0.187654,0.07767 -0.656603,0.596246 -1.04211,1.152389 -0.494415,0.713257 -0.942638,1.046645 -1.521354,1.131582 -0.721917,0.105955 -0.820433,0.04461 -0.820433,-0.510835 z m 36.512499,-1.658353 c 0,-0.436562 0.111041,-0.79375 0.246753,-0.79375 0.321538,0 0.629119,0.97599 0.416169,1.320549 -0.323649,0.523675 -0.662922,0.254067 -0.662922,-0.526799 z m 6.635473,0.374827 c 0.0127,-0.308225 0.07539,-0.37092 0.15985,-0.159853 0.07643,0.190996 0.06703,0.419199 -0.02088,0.507118 -0.08792,0.08792 -0.150453,-0.06835 -0.138965,-0.347265 z m -11.571253,-0.51853 c -0.08617,-0.224557 -0.08531,-0.479648 0.0019,-0.56687 0.188441,-0.188444 0.96512,0.409458 0.96512,0.74297 0,0.399279 -0.802304,0.253178 -0.967031,-0.1761 z m 2.025364,-0.385464 c 0,-0.341018 0.133987,-0.528601 0.330729,-0.46302 0.181901,0.06063 0.330729,0.268993 0.330729,0.46302 0,0.194028 -0.148828,0.402387 -0.330729,0.463021 -0.196742,0.06558 -0.330729,-0.122002 -0.330729,-0.463021 z m 8.838118,-0.30572 c -0.09607,-0.155435 -0.01627,-0.380504 0.177331,-0.500153 0.376817,-0.232886 0.774134,-0.09738 0.774134,0.264014 0,0.356041 -0.760682,0.544831 -0.951465,0.236139 z M 39.309525,63.769792 c 0,-0.656558 0.01764,-0.661458 2.38125,-0.661458 1.309687,0 2.38125,0.106324 2.38125,0.236276 0,0.36702 -0.794674,0.583252 -1.235946,0.336303 -0.241736,-0.135283 -0.972425,-0.03209 -1.870413,0.264162 -0.810535,0.267396 -1.514748,0.486176 -1.56492,0.486176 -0.05017,0 -0.09122,-0.297657 -0.09122,-0.661459 z m -3.042708,-0.396875 c -0.08994,-0.145521 0.01507,-0.264583 0.233353,-0.264583 0.218281,0 0.47046,0.119062 0.560397,0.264583 0.08994,0.145521 -0.01507,0.264584 -0.233354,0.264584 -0.218281,0 -0.470459,-0.119063 -0.560396,-0.264584 z"
         id="path832"
         inkscape:connector-curvature="0" />
      <path
         style="fill:#4a1414;stroke-width:0.26458332"
         d="m 32.8738,131.14347 c -0.26543,-0.1046 -0.463614,-0.27654 -0.44041,-0.3821 0.0232,-0.10556 -0.03871,-0.67077 -0.137586,-1.25602 -0.167072,-0.98889 -0.101566,-1.14893 0.927008,-2.2648 1.48852,-1.61485 2.198704,-3.29284 2.227248,-5.26243 0.02134,-1.4724 -0.02203,-1.59387 -0.598199,-1.67544 -0.374909,-0.0531 -0.873195,0.14879 -1.256771,0.50914 l -0.635565,0.59709 v -0.96862 c 0,-0.86686 0.10422,-1.01353 0.992188,-1.39626 0.545703,-0.23521 1.349375,-0.4221 1.785937,-0.4153 0.55225,0.009 0.965928,-0.20285 1.359655,-0.69495 l 0.565906,-0.7073 0.757011,0.90662 c 0.416356,0.49864 1.063354,1.21057 1.437772,1.58207 0.880744,0.87388 1.352528,2.26233 1.144856,3.36931 -0.186039,0.99168 -0.634471,1.19101 -0.635981,0.28271 -0.0016,-1.01506 -0.987821,-2.36195 -1.65942,-2.26648 -0.352757,0.0501 -0.619269,0.29811 -0.665227,0.61892 -0.09879,0.68961 1.59184,4.35692 2.306846,5.00399 0.301376,0.27274 0.547957,0.75664 0.547957,1.07534 0,0.31869 0.238125,0.79494 0.529167,1.05833 0.693266,0.6274 0.667506,0.83396 -0.128945,1.03385 -0.361961,0.0908 -0.851906,0.46094 -1.088763,0.82243 -0.420719,0.6421 -0.504706,0.65683 -3.641368,0.63866 -1.765894,-0.0102 -3.427886,-0.10417 -3.693316,-0.20876 z M 30.578275,97.235855 c -0.218281,-0.143548 -0.825009,-0.379675 -1.348285,-0.524727 -1.306398,-0.362133 -3.149632,-1.742557 -3.149632,-2.358803 0,-0.462018 -1.165276,-1.476177 -3.577368,-3.113439 -0.467323,-0.317207 -0.914818,-0.74649 -0.994434,-0.953966 -0.240687,-0.627219 -3.031038,-2.042415 -4.364437,-2.213533 -0.68762,-0.08824 -1.623031,-0.38419 -2.078691,-0.657658 -0.827064,-0.496368 -0.828823,-0.496197 -1.034519,0.100258 -0.176858,0.512836 -0.221346,0.451984 -0.314057,-0.429583 -0.05941,-0.56488 0.01918,-1.154239 0.174623,-1.309688 0.357223,-0.357222 0.370894,-0.791744 0.01805,-0.573675 -0.165376,0.102209 -0.264583,-0.443429 -0.264583,-1.455208 0,-0.890301 0.106587,-1.552856 0.236859,-1.472343 0.130272,0.08051 0.308025,-0.03907 0.395006,-0.265738 0.206799,-0.538907 0.691052,-0.230516 0.691052,0.440088 0,0.859069 1.050563,0.103228 1.520953,-1.09427 0.464326,-1.182059 1.101477,-1.548663 1.494005,-0.859619 0.414501,0.727617 1.45909,3.852403 1.471724,4.402521 0.02344,1.02059 0.852308,2.251035 1.817617,2.698223 0.534458,0.247594 1.233575,0.688576 1.553592,0.979961 0.320018,0.291385 0.757517,0.462381 0.97222,0.379992 0.234658,-0.09005 0.559073,0.107676 0.813312,0.495693 0.487884,0.744607 1.914034,0.908215 2.167146,0.248617 0.08376,-0.218281 0.321098,-0.396875 0.527412,-0.396875 0.206314,0 0.488284,-0.297656 0.626602,-0.661458 0.303927,-0.799391 1.322916,-0.926244 1.322916,-0.164689 0,0.273224 -0.178593,0.64499 -0.396875,0.826147 -0.218281,0.181157 -0.396875,0.502851 -0.396875,0.714878 0,0.290687 -0.195223,0.342622 -0.79375,0.211163 -0.446632,-0.0981 -0.79375,-0.06458 -0.79375,0.07665 0,0.138044 0.431517,0.321014 0.958926,0.406601 0.77878,0.126379 1.046461,0.04751 1.424883,-0.419822 0.402261,-0.496771 0.525427,-0.526076 0.900993,-0.214387 0.330013,0.273889 0.585422,0.292529 1.057983,0.07722 0.536377,-0.24439 0.72601,-0.17626 1.364582,0.490265 0.4079,0.425757 0.949942,0.774102 1.204538,0.774102 0.326134,0 0.487398,0.248042 0.545811,0.839521 0.115443,1.168947 0.644779,1.229497 0.857043,0.09804 0.09674,-0.515657 0.29329,-0.937557 0.436784,-0.937557 0.424704,0 0.571312,0.711872 0.264627,1.284918 -0.197947,0.369869 -0.202116,0.750506 -0.01365,1.246211 0.613102,1.61258 -1.062254,3.184218 -3.655552,3.429246 -0.685259,0.06475 -1.42452,2.64e-4 -1.642801,-0.143269 z m -10.47201,-5.5713 c -0.570551,-0.45458 -1.364787,-0.996563 -1.764969,-1.204409 -0.400182,-0.207847 -0.727604,-0.569016 -0.727604,-0.802601 0,-0.730806 1.708763,-0.237017 3.044979,0.879922 1.132072,0.946293 1.420553,1.642134 0.77051,1.858534 -0.157054,0.05228 -0.752366,-0.276868 -1.322916,-0.731446 z M 33.406009,90.18954 c -0.345042,-0.345043 -0.180311,-0.622874 0.369315,-0.622874 0.307907,0 0.504986,0.138687 0.446484,0.314193 -0.128882,0.386646 -0.57067,0.55381 -0.815799,0.308681 z M 13.644942,89.171966 c 0,-0.960593 0.03337,-1.008238 0.429052,-0.612557 0.39568,0.39568 0.39568,0.476696 0,1.041608 -0.426756,0.60928 -0.429052,0.606983 -0.429052,-0.429051 z m 10.166264,-1.017725 c -0.231542,-0.603388 0.08968,-0.968825 0.851608,-0.968825 0.777844,0 0.727149,0.440452 -0.115059,0.999657 -0.509718,0.33844 -0.596235,0.334819 -0.736549,-0.03083 z m 16.556652,-1.502309 c 0.509323,-0.431108 1.351651,-0.903123 1.871837,-1.048922 1.773119,-0.496973 3.925568,-3.241571 3.590182,-4.577857 -0.421135,-1.677934 -3.30948,-2.47484 -4.881764,-1.346898 -0.431453,0.309522 -1.286612,1.679981 -2.167755,3.474 -1.977582,4.026385 -2.223666,4.213637 -1.997067,1.51962 0.09792,-1.164167 0.238155,-2.325026 0.311632,-2.579688 0.101865,-0.353049 -0.02337,-0.46302 -0.527291,-0.46302 -0.480228,0 -0.683998,-0.160056 -0.745434,-0.585516 -0.18237,-1.262956 -3.656423,-0.954657 -3.656423,0.324483 0,0.388585 -0.177926,0.525616 -0.682481,0.525616 -0.602716,0 -0.665809,0.08504 -0.539838,0.727604 0.07845,0.400182 0.216298,1.441979 0.306321,2.315104 l 0.163679,1.5875 -1.117288,-1.852083 c -1.474901,-2.444883 -2.001387,-3.004236 -3.42206,-3.635686 -0.654843,-0.29106 -1.041796,-0.584288 -0.859895,-0.651618 0.63204,-0.233947 0.325663,-0.554566 -0.529167,-0.553765 -1.239227,0.0012 -2.610082,0.741699 -3.177091,1.716267 -0.448526,0.770923 -0.456379,0.910923 -0.09075,1.617968 0.431868,0.835142 1.57086,1.475183 3.108964,1.747042 0.531081,0.09387 1.111207,0.346113 1.289168,0.560543 0.274323,0.330539 0.187768,0.388439 -0.568726,0.380449 -0.490762,-0.0052 -1.596238,-0.177533 -2.456616,-0.382998 -2.831473,-0.676179 -5.011775,-3.567366 -4.549296,-6.03259 0.408239,-2.176103 3.617626,-5.369575 6.067183,-6.037096 1.299256,-0.354056 5.434924,-0.163393 6.762345,0.311759 0.707781,0.253351 1.447676,0.247254 3.535925,-0.02914 1.998994,-0.264577 2.90829,-0.278 3.74121,-0.05523 0.605199,0.161866 1.752471,0.372189 2.549491,0.467386 3.426302,0.409237 6.779139,2.338641 7.415681,4.267383 0.581364,1.761546 -0.185087,4.786742 -1.506625,5.946685 -0.78513,0.689125 -1.986999,1.21117 -3.2693,1.420055 -0.654844,0.106673 -1.887453,0.53747 -2.73913,0.957327 -1.973424,0.972851 -2.405553,0.960659 -1.22962,-0.03469 z M 30.97515,76.469792 c 0,-0.814298 -1.293666,-0.73563 -1.410032,0.08574 -0.07575,0.534702 0.01053,0.603726 0.661458,0.529167 0.543604,-0.06227 0.748574,-0.230637 0.748574,-0.61491 z m 6.165552,-0.297054 c 0.09022,-0.632333 -0.539764,-0.993289 -1.308034,-0.749449 -0.486891,0.154533 -0.66729,0.915203 -0.303357,1.279136 0.404998,0.404998 1.530832,0.03492 1.611391,-0.529687 z m -9.472844,10.218928 c 0,-0.145521 0.112036,-0.264583 0.248969,-0.264583 0.136933,0 0.322553,0.119062 0.41249,0.264583 0.08994,0.145521 -0.0221,0.264584 -0.248969,0.264584 -0.226869,0 -0.41249,-0.119063 -0.41249,-0.264584 z m -7.000159,-0.775467 c -0.180729,-0.292426 0.236646,-0.608185 0.480964,-0.363867 0.251562,0.251562 0.204678,0.610168 -0.07977,0.610168 -0.136933,0 -0.317468,-0.110836 -0.401191,-0.246301 z m 31.606409,-0.486578 c 0,-0.277804 0.267891,-0.628477 0.595313,-0.779273 0.37335,-0.171948 0.725344,-0.705694 0.944062,-1.431532 0.191812,-0.636547 0.522481,-1.426013 0.734817,-1.754368 l 0.386066,-0.597011 1.051121,0.536242 1.051121,0.536242 v 1.846706 c 0,1.015688 -0.03145,1.846706 -0.06988,1.846706 -0.03843,0 -0.715327,-0.235919 -1.504206,-0.524265 -0.788879,-0.288345 -1.442043,-0.496704 -1.451473,-0.46302 -0.298934,1.067724 -1.736939,1.716442 -1.736939,0.783573 z"
         id="path830"
         inkscape:connector-curvature="0" />
    </g>
  </g>
</svg>
